<?xml version="1.0" encoding="UTF-8" standalone="no"?>
<!DOCTYPE svg PUBLIC "-//W3C//DTD SVG 1.1//EN" "http://www.w3.org/Graphics/SVG/1.1/DTD/svg11.dtd">
<!-- Created with Vectornator (http://vectornator.io/) -->
<svg height="100%" stroke-miterlimit="10" style="fill-rule:nonzero;clip-rule:evenodd;stroke-linecap:round;stroke-linejoin:round;" version="1.1" viewBox="0 0 500 500" width="100%" xml:space="preserve" xmlns="http://www.w3.org/2000/svg" xmlns:vectornator="http://vectornator.io" xmlns:xlink="http://www.w3.org/1999/xlink">
<defs/>
<g id="Layer-2" vectornator:layerName="Layer 2" visibility="hidden">
<g opacity="1">
<path d="M351.312 37.1562C347.567 37.0922 343.805 37.1783 340.062 37.3438C335.375 37.551 330.694 37.9148 326.031 38.4375C318.097 39.3269 310.19 40.5686 302.469 42.625C271.246 50.9401 244.302 70.6489 223.031 94.5312C212.01 106.905 202.479 120.528 195.375 135.531C191.959 142.747 189.103 150.24 186.875 157.906C185.146 163.854 183.779 169.913 182.812 176.031C182.078 180.681 181.563 185.333 181.281 190.031C179.758 215.425 184.414 243.517 201.75 263.125C204.575 266.321 207.703 269.278 211.062 271.906C217.485 276.932 224.698 280.79 232.281 283.75C243.244 288.029 255.106 290.661 266.906 290.438C283.388 290.126 299.414 284.36 312.938 275.062C315.556 273.262 317.992 271.255 320.406 269.188C317.394 279.023 314.323 288.838 311.156 298.625C308.628 306.44 306.102 314.262 303.344 322C301.491 327.198 299.154 332.159 296.75 337.125C294.176 342.443 291.438 347.683 288.562 352.844C276.531 374.439 260.908 393.747 242.469 410.188C231.931 419.583 220.495 428.229 207.562 434.062C196.875 438.883 185.357 441.588 173.656 442.219C163.512 442.765 153.334 441.888 143.344 440.125C129.471 437.677 116.086 433.703 105.219 424.281C103.029 422.383 100.998 420.299 99.1562 418.062C88.7509 405.425 85.2544 388.604 85.8125 372.562C86.1091 364.036 87.4917 355.534 89.875 347.344C91.7472 340.91 94.1794 334.566 97.5938 328.781C100.683 323.547 104.736 318.902 109.125 314.719C115.601 308.546 122.971 303.253 130.906 299.125C135.7 296.632 140.729 294.54 145.969 293.188C147.406 292.817 148.878 292.487 150.344 292.25C156.33 291.283 163.85 291.329 167.875 296.625C168.954 298.044 169.777 299.722 170.344 301.406C170.939 303.175 171.215 305.06 170.844 306.906C170.281 309.71 168.353 312.073 166.312 313.969C162.959 317.085 158.864 319.4 154.688 321.219C151.707 322.516 148.542 323.727 145.312 324.219C145.296 324.221 145.419 324.193 145.594 324.188C145.799 324.181 146.015 324.203 146.219 324.219C146.761 324.26 146.82 324.271 147.281 324.344C141.708 323.278 136.316 326.927 135.25 332.5C134.184 338.073 137.833 343.465 143.406 344.531C146.532 345.063 149.656 344.454 152.688 343.656C156.18 342.738 159.598 341.505 162.906 340.062C174.176 335.149 185.48 327.152 189.812 315.156C194.792 301.37 188.397 284.636 176.219 276.781C170.025 272.786 162.651 271.165 155.344 271.25C141.982 271.406 128.969 276.533 117.5 283.094C108.23 288.396 99.6023 294.963 92.1562 302.625C87.8364 307.07 83.8813 311.937 80.625 317.219C75.4019 325.691 71.8529 335.149 69.3438 344.75C61.975 372.946 63.6657 405.787 82.125 429.531C89.0068 438.383 97.9063 445.396 107.875 450.469C119.473 456.37 132.359 459.254 145.156 461.125C163.626 463.826 182.599 463.54 200.625 458.375C222.665 452.059 241.254 438.907 258.031 423.656C269.455 413.272 279.909 401.861 289.125 389.469C297.434 378.297 304.696 366.39 311.094 354.031C314.366 347.71 317.603 341.273 320.312 334.688C322.821 328.589 324.802 322.254 326.875 316C333.483 296.068 339.818 276.002 345.594 255.812C346.446 252.834 347.29 249.875 348.062 246.875C348.588 244.834 349.143 242.752 349.406 240.656C349.525 239.712 349.634 238.625 349.469 237.688C349.301 236.739 349.323 235.672 348.781 234.875C347.425 232.88 345.938 230.88 343.938 229.531C342.588 228.621 340.808 228.553 339.188 228.406C338.191 228.316 337.195 228.626 336.219 228.844C335.047 229.105 333.856 229.771 332.844 230.406C330.874 231.642 329.112 233.217 327.375 234.75C325.555 236.357 323.793 237.987 322.031 239.656C317.692 243.768 313.433 247.979 309.188 252.188C307.644 253.717 305.695 255.29 303.875 256.656C299.158 260.197 294.006 263.192 288.562 265.469C280.009 269.047 270.704 270.732 261.438 270.094C254.854 269.64 248.343 268.008 242.125 265.844C228.774 261.197 217.441 253.281 210.469 240.781C205.981 232.735 203.466 223.676 202.188 214.594C200.476 202.435 200.784 189.975 202.812 177.875C205.677 160.784 212.134 144.426 221.312 129.75C228.524 118.22 237.396 107.702 247.094 98.1875C261.071 84.4753 277.4 72.8521 295.719 65.7188C308.803 60.6237 322.667 58.3861 336.625 57.4062C341.031 57.0969 345.427 56.9323 349.844 56.9688C353.212 56.9966 356.611 57.1284 359.969 57.4062C377.502 58.857 397.156 64.1617 406.969 80.0938C410.138 85.2396 412.573 90.9627 414.562 96.6562C422.217 118.559 421.712 142.41 416.25 164.75C414.087 173.595 411.259 182.231 407.156 190.375C402.848 198.926 397.456 207.68 390.375 214.219C387.284 217.073 383.569 219.78 379.281 220.312C373.974 220.971 371.369 215.15 369.844 211.031C369.498 210.097 369.19 209.237 368.906 208.281C368.625 207.334 368.354 206.241 368.125 205.281C367.741 203.67 367.397 202.04 367.125 200.406C366.841 198.702 366.625 196.967 366.438 195.25C365.829 189.692 365.641 184.087 365.812 178.5C365.92 174.984 366.124 171.443 366.719 167.969C367.292 164.624 368.121 161.306 368.875 158C369.38 155.784 369.89 153.558 370.406 151.344C370.779 149.746 371.155 148.16 371.531 146.562C371.807 145.391 372.097 144.203 372.375 143.031C372.559 142.256 372.753 141.493 372.938 140.719C373.27 139.324 373.858 137.641 373.906 136.156C373.923 135.631 374.031 135.096 373.875 134.594C373.676 133.952 373.576 133.192 373.438 132.469C377.108 130.771 379.535 126.966 379.094 122.719C378.68 118.779 377.748 114.946 376.062 111.344C367.701 93.4753 345.858 87.9021 327.719 89.2812C324.962 89.4909 322.212 89.8652 319.5 90.4062C315.452 91.2139 311.534 92.4619 307.719 94.0312C281.498 104.817 262.38 129.497 251.344 154.906C247.12 164.632 243.855 174.887 242.781 185.469C241.429 198.801 242.592 213.72 248.812 225.781C250.684 229.41 253.064 232.779 255.938 235.688C257.895 237.669 260.085 239.461 262.469 240.906C275.644 248.898 293.068 246.166 306.188 239.594C311.618 236.873 316.509 233.208 321.094 229.25C328.781 222.613 335.12 214.728 340.844 206.375C343.004 203.223 345.039 199.997 347 196.719C347.8 204.568 349.198 212.473 352.219 219.781C356.072 229.104 362.794 237.255 373.062 239.406C387.619 242.456 400.752 232.819 409.688 222.344C411.176 220.599 412.583 218.788 413.938 216.938C420.222 208.351 425.453 198.813 429.344 188.906C432.105 181.875 434.176 174.51 435.875 167.156C439.204 152.746 440.703 137.873 439.75 123.094C438.805 108.445 435.41 93.9581 429.375 80.5625C426.145 73.3923 422.312 66.5502 416.938 60.75C400.39 42.8926 374.712 37.5566 351.312 37.1562ZM330.406 108.625C332.459 108.519 334.512 108.515 336.562 108.656C338.168 108.767 339.759 108.97 341.344 109.25C348.097 110.444 356 113.435 358.75 120.312C359.317 121.731 359.595 123.207 359.75 124.719C359.83 125.488 360.162 126.144 360.406 126.844C360.126 126.84 359.841 126.78 359.562 126.781C358.236 126.788 357.462 128.4 356.5 129.312C356.199 129.598 356.008 129.995 355.781 130.344C355.023 131.509 354.541 133.065 354.031 134.312C353.782 134.922 353.531 135.516 353.281 136.125C352.875 137.117 352.471 138.134 352.062 139.125C351.592 140.267 351.129 141.39 350.656 142.531C349.884 144.396 349.092 146.264 348.312 148.125C347.408 150.283 346.515 152.443 345.594 154.594C344.496 157.158 343.384 159.73 342.188 162.25C341.367 163.977 340.442 165.629 339.656 167.375C337.71 171.699 336 176.114 333.844 180.344C330.927 186.065 327.446 191.483 323.781 196.75C318.318 204.601 312.313 211.566 304.719 217.438C303.172 218.633 301.617 219.807 299.938 220.812C298.278 221.806 296.538 222.67 294.75 223.406C293.321 223.995 291.861 224.512 290.375 224.938C284.806 226.532 277.285 227.401 272.156 223.969C268.146 221.285 265.773 216.771 264.281 212.312C261.722 204.662 261.414 196.262 262.094 188.281C262.85 179.396 265.651 170.802 269.188 162.656C274.707 149.945 282.319 137.961 292.062 128.062C298.66 121.36 306.393 115.625 315.125 112.031C317.778 110.939 320.496 110.061 323.312 109.5C325.653 109.034 328.024 108.748 330.406 108.625Z" fill="#ee9b00" stroke="none"/>
</g>
</g>
<g id="Layer-2-copy" vectornator:layerName="Layer 2 copy" visibility="hidden">
<g opacity="1">
<path d="M351.312 37.1562C347.567 37.0922 343.805 37.1783 340.062 37.3438C335.375 37.551 330.694 37.9148 326.031 38.4375C318.097 39.3269 310.19 40.5686 302.469 42.625C271.246 50.9401 244.302 70.6489 223.031 94.5312C212.01 106.905 202.479 120.528 195.375 135.531C191.959 142.747 189.103 150.24 186.875 157.906C185.146 163.854 183.779 169.913 182.812 176.031C182.078 180.681 181.563 185.333 181.281 190.031C179.758 215.425 184.414 243.517 201.75 263.125C204.575 266.321 207.703 269.278 211.062 271.906C217.485 276.932 224.698 280.79 232.281 283.75C243.244 288.029 255.106 290.661 266.906 290.438C283.388 290.126 299.414 284.36 312.938 275.062C315.556 273.262 317.992 271.255 320.406 269.188C317.394 279.023 314.323 288.838 311.156 298.625C308.628 306.44 306.102 314.262 303.344 322C301.491 327.198 299.154 332.159 296.75 337.125C294.176 342.443 291.438 347.683 288.562 352.844C276.531 374.439 260.908 393.747 242.469 410.188C231.931 419.583 220.495 428.229 207.562 434.062C196.875 438.883 185.357 441.588 173.656 442.219C163.512 442.765 153.334 441.888 143.344 440.125C129.471 437.677 116.086 433.703 105.219 424.281C103.029 422.383 100.998 420.299 99.1562 418.062C88.7509 405.425 85.2544 388.604 85.8125 372.562C86.1091 364.036 87.4917 355.534 89.875 347.344C91.7472 340.91 94.1794 334.566 97.5938 328.781C100.683 323.547 104.736 318.902 109.125 314.719C115.601 308.546 122.971 303.253 130.906 299.125C135.7 296.632 140.729 294.54 145.969 293.188C147.406 292.817 148.878 292.487 150.344 292.25C156.33 291.283 163.85 291.329 167.875 296.625C168.954 298.044 169.777 299.722 170.344 301.406C170.939 303.175 171.215 305.06 170.844 306.906C170.281 309.71 168.353 312.073 166.312 313.969C162.959 317.085 158.864 319.4 154.688 321.219C151.707 322.516 148.542 323.727 145.312 324.219C145.296 324.221 145.419 324.193 145.594 324.188C145.799 324.181 146.015 324.203 146.219 324.219C146.761 324.26 146.82 324.271 147.281 324.344C141.708 323.278 136.316 326.927 135.25 332.5C134.184 338.073 137.833 343.465 143.406 344.531C146.532 345.063 149.656 344.454 152.688 343.656C156.18 342.738 159.598 341.505 162.906 340.062C174.176 335.149 185.48 327.152 189.812 315.156C194.792 301.37 188.397 284.636 176.219 276.781C170.025 272.786 162.651 271.165 155.344 271.25C141.982 271.406 128.969 276.533 117.5 283.094C108.23 288.396 99.6023 294.963 92.1562 302.625C87.8364 307.07 83.8813 311.937 80.625 317.219C75.4019 325.691 71.8529 335.149 69.3438 344.75C61.975 372.946 63.6657 405.787 82.125 429.531C89.0068 438.383 97.9063 445.396 107.875 450.469C119.473 456.37 132.359 459.254 145.156 461.125C163.626 463.826 182.599 463.54 200.625 458.375C222.665 452.059 241.254 438.907 258.031 423.656C269.455 413.272 279.909 401.861 289.125 389.469C297.434 378.297 304.696 366.39 311.094 354.031C314.366 347.71 317.603 341.273 320.312 334.688C322.821 328.589 324.802 322.254 326.875 316C333.483 296.068 339.818 276.002 345.594 255.812C346.446 252.834 347.29 249.875 348.062 246.875C348.588 244.834 349.143 242.752 349.406 240.656C349.525 239.712 349.634 238.625 349.469 237.688C349.301 236.739 349.323 235.672 348.781 234.875C347.425 232.88 345.938 230.88 343.938 229.531C342.588 228.621 340.808 228.553 339.188 228.406C338.191 228.316 337.195 228.626 336.219 228.844C335.047 229.105 333.856 229.771 332.844 230.406C330.874 231.642 329.112 233.217 327.375 234.75C325.555 236.357 323.793 237.987 322.031 239.656C317.692 243.768 313.433 247.979 309.188 252.188C307.644 253.717 305.695 255.29 303.875 256.656C299.158 260.197 294.006 263.192 288.562 265.469C280.009 269.047 270.704 270.732 261.438 270.094C254.854 269.64 248.343 268.008 242.125 265.844C228.774 261.197 217.441 253.281 210.469 240.781C205.981 232.735 203.466 223.676 202.188 214.594C200.476 202.435 200.784 189.975 202.812 177.875C205.677 160.784 212.134 144.426 221.312 129.75C228.524 118.22 237.396 107.702 247.094 98.1875C261.071 84.4753 277.4 72.8521 295.719 65.7188C308.803 60.6237 322.667 58.3861 336.625 57.4062C341.031 57.0969 345.427 56.9323 349.844 56.9688C353.212 56.9966 356.611 57.1284 359.969 57.4062C377.502 58.857 397.156 64.1617 406.969 80.0938C410.138 85.2396 412.573 90.9627 414.562 96.6562C422.217 118.559 421.712 142.41 416.25 164.75C414.087 173.595 411.259 182.231 407.156 190.375C402.848 198.926 397.456 207.68 390.375 214.219C387.284 217.073 383.569 219.78 379.281 220.312C373.974 220.971 371.369 215.15 369.844 211.031C369.498 210.097 369.19 209.237 368.906 208.281C368.625 207.334 368.354 206.241 368.125 205.281C367.741 203.67 367.397 202.04 367.125 200.406C366.841 198.702 366.625 196.967 366.438 195.25C365.829 189.692 365.641 184.087 365.812 178.5C365.92 174.984 366.124 171.443 366.719 167.969C367.292 164.624 368.121 161.306 368.875 158C369.38 155.784 369.89 153.558 370.406 151.344C370.779 149.746 371.155 148.16 371.531 146.562C371.807 145.391 372.097 144.203 372.375 143.031C372.559 142.256 372.753 141.493 372.938 140.719C373.27 139.324 373.858 137.641 373.906 136.156C373.923 135.631 374.031 135.096 373.875 134.594C373.676 133.952 373.576 133.192 373.438 132.469C377.108 130.771 379.535 126.966 379.094 122.719C378.68 118.779 377.748 114.946 376.062 111.344C367.701 93.4753 345.858 87.9021 327.719 89.2812C324.962 89.4909 322.212 89.8652 319.5 90.4062C315.452 91.2139 311.534 92.4619 307.719 94.0312C281.498 104.817 262.38 129.497 251.344 154.906C247.12 164.632 243.855 174.887 242.781 185.469C241.429 198.801 242.592 213.72 248.812 225.781C250.684 229.41 253.064 232.779 255.938 235.688C257.895 237.669 260.085 239.461 262.469 240.906C275.644 248.898 293.068 246.166 306.188 239.594C311.618 236.873 316.509 233.208 321.094 229.25C328.781 222.613 335.12 214.728 340.844 206.375C343.004 203.223 345.039 199.997 347 196.719C347.8 204.568 349.198 212.473 352.219 219.781C356.072 229.104 362.794 237.255 373.062 239.406C387.619 242.456 400.752 232.819 409.688 222.344C411.176 220.599 412.583 218.788 413.938 216.938C420.222 208.351 425.453 198.813 429.344 188.906C432.105 181.875 434.176 174.51 435.875 167.156C439.204 152.746 440.703 137.873 439.75 123.094C438.805 108.445 435.41 93.9581 429.375 80.5625C426.145 73.3923 422.312 66.5502 416.938 60.75C400.39 42.8926 374.712 37.5566 351.312 37.1562ZM330.406 108.625C332.459 108.519 334.512 108.515 336.562 108.656C338.168 108.767 339.759 108.97 341.344 109.25C348.097 110.444 356 113.435 358.75 120.312C359.317 121.731 359.595 123.207 359.75 124.719C359.83 125.488 360.162 126.144 360.406 126.844C360.126 126.84 359.841 126.78 359.562 126.781C358.236 126.788 357.462 128.4 356.5 129.312C356.199 129.598 356.008 129.995 355.781 130.344C355.023 131.509 354.541 133.065 354.031 134.312C353.782 134.922 353.531 135.516 353.281 136.125C352.875 137.117 352.471 138.134 352.062 139.125C351.592 140.267 351.129 141.39 350.656 142.531C349.884 144.396 349.092 146.264 348.312 148.125C347.408 150.283 346.515 152.443 345.594 154.594C344.496 157.158 343.384 159.73 342.188 162.25C341.367 163.977 340.442 165.629 339.656 167.375C337.71 171.699 336 176.114 333.844 180.344C330.927 186.065 327.446 191.483 323.781 196.75C318.318 204.601 312.313 211.566 304.719 217.438C303.172 218.633 301.617 219.807 299.938 220.812C298.278 221.806 296.538 222.67 294.75 223.406C293.321 223.995 291.861 224.512 290.375 224.938C284.806 226.532 277.285 227.401 272.156 223.969C268.146 221.285 265.773 216.771 264.281 212.312C261.722 204.662 261.414 196.262 262.094 188.281C262.85 179.396 265.651 170.802 269.188 162.656C274.707 149.945 282.319 137.961 292.062 128.062C298.66 121.36 306.393 115.625 315.125 112.031C317.778 110.939 320.496 110.061 323.312 109.5C325.653 109.034 328.024 108.748 330.406 108.625Z" fill="#bb3e03" stroke="none"/>
</g>
</g>
<g id="Layer-2-copy_2" vectornator:layerName="Layer 2 copy" visibility="hidden">
<g opacity="1">
<path d="M351.312 37.1562C347.567 37.0922 343.805 37.1783 340.062 37.3438C335.375 37.551 330.694 37.9148 326.031 38.4375C318.097 39.3269 310.19 40.5686 302.469 42.625C271.246 50.9401 244.302 70.6489 223.031 94.5312C212.01 106.905 202.479 120.528 195.375 135.531C191.959 142.747 189.103 150.24 186.875 157.906C185.146 163.854 183.779 169.913 182.812 176.031C182.078 180.681 181.563 185.333 181.281 190.031C179.758 215.425 184.414 243.517 201.75 263.125C204.575 266.321 207.703 269.278 211.062 271.906C217.485 276.932 224.698 280.79 232.281 283.75C243.244 288.029 255.106 290.661 266.906 290.438C283.388 290.126 299.414 284.36 312.938 275.062C315.556 273.262 317.992 271.255 320.406 269.188C317.394 279.023 314.323 288.838 311.156 298.625C308.628 306.44 306.102 314.262 303.344 322C301.491 327.198 299.154 332.159 296.75 337.125C294.176 342.443 291.438 347.683 288.562 352.844C276.531 374.439 260.908 393.747 242.469 410.188C231.931 419.583 220.495 428.229 207.562 434.062C196.875 438.883 185.357 441.588 173.656 442.219C163.512 442.765 153.334 441.888 143.344 440.125C129.471 437.677 116.086 433.703 105.219 424.281C103.029 422.383 100.998 420.299 99.1562 418.062C88.7509 405.425 85.2544 388.604 85.8125 372.562C86.1091 364.036 87.4917 355.534 89.875 347.344C91.7472 340.91 94.1794 334.566 97.5938 328.781C100.683 323.547 104.736 318.902 109.125 314.719C115.601 308.546 122.971 303.253 130.906 299.125C135.7 296.632 140.729 294.54 145.969 293.188C147.406 292.817 148.878 292.487 150.344 292.25C156.33 291.283 163.85 291.329 167.875 296.625C168.954 298.044 169.777 299.722 170.344 301.406C170.939 303.175 171.215 305.06 170.844 306.906C170.281 309.71 168.353 312.073 166.312 313.969C162.959 317.085 158.864 319.4 154.688 321.219C151.707 322.516 148.542 323.727 145.312 324.219C145.296 324.221 145.419 324.193 145.594 324.188C145.799 324.181 146.015 324.203 146.219 324.219C146.761 324.26 146.82 324.271 147.281 324.344C141.708 323.278 136.316 326.927 135.25 332.5C134.184 338.073 137.833 343.465 143.406 344.531C146.532 345.063 149.656 344.454 152.688 343.656C156.18 342.738 159.598 341.505 162.906 340.062C174.176 335.149 185.48 327.152 189.812 315.156C194.792 301.37 188.397 284.636 176.219 276.781C170.025 272.786 162.651 271.165 155.344 271.25C141.982 271.406 128.969 276.533 117.5 283.094C108.23 288.396 99.6023 294.963 92.1562 302.625C87.8364 307.07 83.8813 311.937 80.625 317.219C75.4019 325.691 71.8529 335.149 69.3438 344.75C61.975 372.946 63.6657 405.787 82.125 429.531C89.0068 438.383 97.9063 445.396 107.875 450.469C119.473 456.37 132.359 459.254 145.156 461.125C163.626 463.826 182.599 463.54 200.625 458.375C222.665 452.059 241.254 438.907 258.031 423.656C269.455 413.272 279.909 401.861 289.125 389.469C297.434 378.297 304.696 366.39 311.094 354.031C314.366 347.71 317.603 341.273 320.312 334.688C322.821 328.589 324.802 322.254 326.875 316C333.483 296.068 339.818 276.002 345.594 255.812C346.446 252.834 347.29 249.875 348.062 246.875C348.588 244.834 349.143 242.752 349.406 240.656C349.525 239.712 349.634 238.625 349.469 237.688C349.301 236.739 349.323 235.672 348.781 234.875C347.425 232.88 345.938 230.88 343.938 229.531C342.588 228.621 340.808 228.553 339.188 228.406C338.191 228.316 337.195 228.626 336.219 228.844C335.047 229.105 333.856 229.771 332.844 230.406C330.874 231.642 329.112 233.217 327.375 234.75C325.555 236.357 323.793 237.987 322.031 239.656C317.692 243.768 313.433 247.979 309.188 252.188C307.644 253.717 305.695 255.29 303.875 256.656C299.158 260.197 294.006 263.192 288.562 265.469C280.009 269.047 270.704 270.732 261.438 270.094C254.854 269.64 248.343 268.008 242.125 265.844C228.774 261.197 217.441 253.281 210.469 240.781C205.981 232.735 203.466 223.676 202.188 214.594C200.476 202.435 200.784 189.975 202.812 177.875C205.677 160.784 212.134 144.426 221.312 129.75C228.524 118.22 237.396 107.702 247.094 98.1875C261.071 84.4753 277.4 72.8521 295.719 65.7188C308.803 60.6237 322.667 58.3861 336.625 57.4062C341.031 57.0969 345.427 56.9323 349.844 56.9688C353.212 56.9966 356.611 57.1284 359.969 57.4062C377.502 58.857 397.156 64.1617 406.969 80.0938C410.138 85.2396 412.573 90.9627 414.562 96.6562C422.217 118.559 421.712 142.41 416.25 164.75C414.087 173.595 411.259 182.231 407.156 190.375C402.848 198.926 397.456 207.68 390.375 214.219C387.284 217.073 383.569 219.78 379.281 220.312C373.974 220.971 371.369 215.15 369.844 211.031C369.498 210.097 369.19 209.237 368.906 208.281C368.625 207.334 368.354 206.241 368.125 205.281C367.741 203.67 367.397 202.04 367.125 200.406C366.841 198.702 366.625 196.967 366.438 195.25C365.829 189.692 365.641 184.087 365.812 178.5C365.92 174.984 366.124 171.443 366.719 167.969C367.292 164.624 368.121 161.306 368.875 158C369.38 155.784 369.89 153.558 370.406 151.344C370.779 149.746 371.155 148.16 371.531 146.562C371.807 145.391 372.097 144.203 372.375 143.031C372.559 142.256 372.753 141.493 372.938 140.719C373.27 139.324 373.858 137.641 373.906 136.156C373.923 135.631 374.031 135.096 373.875 134.594C373.676 133.952 373.576 133.192 373.438 132.469C377.108 130.771 379.535 126.966 379.094 122.719C378.68 118.779 377.748 114.946 376.062 111.344C367.701 93.4753 345.858 87.9021 327.719 89.2812C324.962 89.4909 322.212 89.8652 319.5 90.4062C315.452 91.2139 311.534 92.4619 307.719 94.0312C281.498 104.817 262.38 129.497 251.344 154.906C247.12 164.632 243.855 174.887 242.781 185.469C241.429 198.801 242.592 213.72 248.812 225.781C250.684 229.41 253.064 232.779 255.938 235.688C257.895 237.669 260.085 239.461 262.469 240.906C275.644 248.898 293.068 246.166 306.188 239.594C311.618 236.873 316.509 233.208 321.094 229.25C328.781 222.613 335.12 214.728 340.844 206.375C343.004 203.223 345.039 199.997 347 196.719C347.8 204.568 349.198 212.473 352.219 219.781C356.072 229.104 362.794 237.255 373.062 239.406C387.619 242.456 400.752 232.819 409.688 222.344C411.176 220.599 412.583 218.788 413.938 216.938C420.222 208.351 425.453 198.813 429.344 188.906C432.105 181.875 434.176 174.51 435.875 167.156C439.204 152.746 440.703 137.873 439.75 123.094C438.805 108.445 435.41 93.9581 429.375 80.5625C426.145 73.3923 422.312 66.5502 416.938 60.75C400.39 42.8926 374.712 37.5566 351.312 37.1562ZM330.406 108.625C332.459 108.519 334.512 108.515 336.562 108.656C338.168 108.767 339.759 108.97 341.344 109.25C348.097 110.444 356 113.435 358.75 120.312C359.317 121.731 359.595 123.207 359.75 124.719C359.83 125.488 360.162 126.144 360.406 126.844C360.126 126.84 359.841 126.78 359.562 126.781C358.236 126.788 357.462 128.4 356.5 129.312C356.199 129.598 356.008 129.995 355.781 130.344C355.023 131.509 354.541 133.065 354.031 134.312C353.782 134.922 353.531 135.516 353.281 136.125C352.875 137.117 352.471 138.134 352.062 139.125C351.592 140.267 351.129 141.39 350.656 142.531C349.884 144.396 349.092 146.264 348.312 148.125C347.408 150.283 346.515 152.443 345.594 154.594C344.496 157.158 343.384 159.73 342.188 162.25C341.367 163.977 340.442 165.629 339.656 167.375C337.71 171.699 336 176.114 333.844 180.344C330.927 186.065 327.446 191.483 323.781 196.75C318.318 204.601 312.313 211.566 304.719 217.438C303.172 218.633 301.617 219.807 299.938 220.812C298.278 221.806 296.538 222.67 294.75 223.406C293.321 223.995 291.861 224.512 290.375 224.938C284.806 226.532 277.285 227.401 272.156 223.969C268.146 221.285 265.773 216.771 264.281 212.312C261.722 204.662 261.414 196.262 262.094 188.281C262.85 179.396 265.651 170.802 269.188 162.656C274.707 149.945 282.319 137.961 292.062 128.062C298.66 121.36 306.393 115.625 315.125 112.031C317.778 110.939 320.496 110.061 323.312 109.5C325.653 109.034 328.024 108.748 330.406 108.625Z" fill="#9b2226" stroke="none"/>
</g>
</g>
<g id="Layer-2-copy_3" vectornator:layerName="Layer 2 copy">
<g opacity="1">
<path d="M351.312 37.1562C347.567 37.0922 343.805 37.1783 340.062 37.3438C335.375 37.551 330.694 37.9148 326.031 38.4375C318.097 39.3269 310.19 40.5686 302.469 42.625C271.246 50.9401 244.302 70.6489 223.031 94.5312C212.01 106.905 202.479 120.528 195.375 135.531C191.959 142.747 189.103 150.24 186.875 157.906C185.146 163.854 183.779 169.913 182.812 176.031C182.078 180.681 181.563 185.333 181.281 190.031C179.758 215.425 184.414 243.517 201.75 263.125C204.575 266.321 207.703 269.278 211.062 271.906C217.485 276.932 224.698 280.79 232.281 283.75C243.244 288.029 255.106 290.661 266.906 290.438C283.388 290.126 299.414 284.36 312.938 275.062C315.556 273.262 317.992 271.255 320.406 269.188C317.394 279.023 314.323 288.838 311.156 298.625C308.628 306.44 306.102 314.262 303.344 322C301.491 327.198 299.154 332.159 296.75 337.125C294.176 342.443 291.438 347.683 288.562 352.844C276.531 374.439 260.908 393.747 242.469 410.188C231.931 419.583 220.495 428.229 207.562 434.062C196.875 438.883 185.357 441.588 173.656 442.219C163.512 442.765 153.334 441.888 143.344 440.125C129.471 437.677 116.086 433.703 105.219 424.281C103.029 422.383 100.998 420.299 99.1562 418.062C88.7509 405.425 85.2544 388.604 85.8125 372.562C86.1091 364.036 87.4917 355.534 89.875 347.344C91.7472 340.91 94.1794 334.566 97.5938 328.781C100.683 323.547 104.736 318.902 109.125 314.719C115.601 308.546 122.971 303.253 130.906 299.125C135.7 296.632 140.729 294.54 145.969 293.188C147.406 292.817 148.878 292.487 150.344 292.25C156.33 291.283 163.85 291.329 167.875 296.625C168.954 298.044 169.777 299.722 170.344 301.406C170.939 303.175 171.215 305.06 170.844 306.906C170.281 309.71 168.353 312.073 166.312 313.969C162.959 317.085 158.864 319.4 154.688 321.219C151.707 322.516 148.542 323.727 145.312 324.219C145.296 324.221 145.419 324.193 145.594 324.188C145.799 324.181 146.015 324.203 146.219 324.219C146.761 324.26 146.82 324.271 147.281 324.344C141.708 323.278 136.316 326.927 135.25 332.5C134.184 338.073 137.833 343.465 143.406 344.531C146.532 345.063 149.656 344.454 152.688 343.656C156.18 342.738 159.598 341.505 162.906 340.062C174.176 335.149 185.48 327.152 189.812 315.156C194.792 301.37 188.397 284.636 176.219 276.781C170.025 272.786 162.651 271.165 155.344 271.25C141.982 271.406 128.969 276.533 117.5 283.094C108.23 288.396 99.6023 294.963 92.1562 302.625C87.8364 307.07 83.8813 311.937 80.625 317.219C75.4019 325.691 71.8529 335.149 69.3438 344.75C61.975 372.946 63.6657 405.787 82.125 429.531C89.0068 438.383 97.9063 445.396 107.875 450.469C119.473 456.37 132.359 459.254 145.156 461.125C163.626 463.826 182.599 463.54 200.625 458.375C222.665 452.059 241.254 438.907 258.031 423.656C269.455 413.272 279.909 401.861 289.125 389.469C297.434 378.297 304.696 366.39 311.094 354.031C314.366 347.71 317.603 341.273 320.312 334.688C322.821 328.589 324.802 322.254 326.875 316C333.483 296.068 339.818 276.002 345.594 255.812C346.446 252.834 347.29 249.875 348.062 246.875C348.588 244.834 349.143 242.752 349.406 240.656C349.525 239.712 349.634 238.625 349.469 237.688C349.301 236.739 349.323 235.672 348.781 234.875C347.425 232.88 345.938 230.88 343.938 229.531C342.588 228.621 340.808 228.553 339.188 228.406C338.191 228.316 337.195 228.626 336.219 228.844C335.047 229.105 333.856 229.771 332.844 230.406C330.874 231.642 329.112 233.217 327.375 234.75C325.555 236.357 323.793 237.987 322.031 239.656C317.692 243.768 313.433 247.979 309.188 252.188C307.644 253.717 305.695 255.29 303.875 256.656C299.158 260.197 294.006 263.192 288.562 265.469C280.009 269.047 270.704 270.732 261.438 270.094C254.854 269.64 248.343 268.008 242.125 265.844C228.774 261.197 217.441 253.281 210.469 240.781C205.981 232.735 203.466 223.676 202.188 214.594C200.476 202.435 200.784 189.975 202.812 177.875C205.677 160.784 212.134 144.426 221.312 129.75C228.524 118.22 237.396 107.702 247.094 98.1875C261.071 84.4753 277.4 72.8521 295.719 65.7188C308.803 60.6237 322.667 58.3861 336.625 57.4062C341.031 57.0969 345.427 56.9323 349.844 56.9688C353.212 56.9966 356.611 57.1284 359.969 57.4062C377.502 58.857 397.156 64.1617 406.969 80.0938C410.138 85.2396 412.573 90.9627 414.562 96.6562C422.217 118.559 421.712 142.41 416.25 164.75C414.087 173.595 411.259 182.231 407.156 190.375C402.848 198.926 397.456 207.68 390.375 214.219C387.284 217.073 383.569 219.78 379.281 220.312C373.974 220.971 371.369 215.15 369.844 211.031C369.498 210.097 369.19 209.237 368.906 208.281C368.625 207.334 368.354 206.241 368.125 205.281C367.741 203.67 367.397 202.04 367.125 200.406C366.841 198.702 366.625 196.967 366.438 195.25C365.829 189.692 365.641 184.087 365.812 178.5C365.92 174.984 366.124 171.443 366.719 167.969C367.292 164.624 368.121 161.306 368.875 158C369.38 155.784 369.89 153.558 370.406 151.344C370.779 149.746 371.155 148.16 371.531 146.562C371.807 145.391 372.097 144.203 372.375 143.031C372.559 142.256 372.753 141.493 372.938 140.719C373.27 139.324 373.858 137.641 373.906 136.156C373.923 135.631 374.031 135.096 373.875 134.594C373.676 133.952 373.576 133.192 373.438 132.469C377.108 130.771 379.535 126.966 379.094 122.719C378.68 118.779 377.748 114.946 376.062 111.344C367.701 93.4753 345.858 87.9021 327.719 89.2812C324.962 89.4909 322.212 89.8652 319.5 90.4062C315.452 91.2139 311.534 92.4619 307.719 94.0312C281.498 104.817 262.38 129.497 251.344 154.906C247.12 164.632 243.855 174.887 242.781 185.469C241.429 198.801 242.592 213.72 248.812 225.781C250.684 229.41 253.064 232.779 255.938 235.688C257.895 237.669 260.085 239.461 262.469 240.906C275.644 248.898 293.068 246.166 306.188 239.594C311.618 236.873 316.509 233.208 321.094 229.25C328.781 222.613 335.12 214.728 340.844 206.375C343.004 203.223 345.039 199.997 347 196.719C347.8 204.568 349.198 212.473 352.219 219.781C356.072 229.104 362.794 237.255 373.062 239.406C387.619 242.456 400.752 232.819 409.688 222.344C411.176 220.599 412.583 218.788 413.938 216.938C420.222 208.351 425.453 198.813 429.344 188.906C432.105 181.875 434.176 174.51 435.875 167.156C439.204 152.746 440.703 137.873 439.75 123.094C438.805 108.445 435.41 93.9581 429.375 80.5625C426.145 73.3923 422.312 66.5502 416.938 60.75C400.39 42.8926 374.712 37.5566 351.312 37.1562ZM330.406 108.625C332.459 108.519 334.512 108.515 336.562 108.656C338.168 108.767 339.759 108.97 341.344 109.25C348.097 110.444 356 113.435 358.75 120.312C359.317 121.731 359.595 123.207 359.75 124.719C359.83 125.488 360.162 126.144 360.406 126.844C360.126 126.84 359.841 126.78 359.562 126.781C358.236 126.788 357.462 128.4 356.5 129.312C356.199 129.598 356.008 129.995 355.781 130.344C355.023 131.509 354.541 133.065 354.031 134.312C353.782 134.922 353.531 135.516 353.281 136.125C352.875 137.117 352.471 138.134 352.062 139.125C351.592 140.267 351.129 141.39 350.656 142.531C349.884 144.396 349.092 146.264 348.312 148.125C347.408 150.283 346.515 152.443 345.594 154.594C344.496 157.158 343.384 159.73 342.188 162.25C341.367 163.977 340.442 165.629 339.656 167.375C337.71 171.699 336 176.114 333.844 180.344C330.927 186.065 327.446 191.483 323.781 196.75C318.318 204.601 312.313 211.566 304.719 217.438C303.172 218.633 301.617 219.807 299.938 220.812C298.278 221.806 296.538 222.67 294.75 223.406C293.321 223.995 291.861 224.512 290.375 224.938C284.806 226.532 277.285 227.401 272.156 223.969C268.146 221.285 265.773 216.771 264.281 212.312C261.722 204.662 261.414 196.262 262.094 188.281C262.85 179.396 265.651 170.802 269.188 162.656C274.707 149.945 282.319 137.961 292.062 128.062C298.66 121.36 306.393 115.625 315.125 112.031C317.778 110.939 320.496 110.061 323.312 109.5C325.653 109.034 328.024 108.748 330.406 108.625Z" fill="#005f73" stroke="none"/>
</g>
</g>
<g id="Layer-2-copy_4" vectornator:layerName="Layer 2 copy" visibility="hidden">
<g opacity="1">
<path d="M351.312 37.1562C347.567 37.0922 343.805 37.1783 340.062 37.3438C335.375 37.551 330.694 37.9148 326.031 38.4375C318.097 39.3269 310.19 40.5686 302.469 42.625C271.246 50.9401 244.302 70.6489 223.031 94.5312C212.01 106.905 202.479 120.528 195.375 135.531C191.959 142.747 189.103 150.24 186.875 157.906C185.146 163.854 183.779 169.913 182.812 176.031C182.078 180.681 181.563 185.333 181.281 190.031C179.758 215.425 184.414 243.517 201.75 263.125C204.575 266.321 207.703 269.278 211.062 271.906C217.485 276.932 224.698 280.79 232.281 283.75C243.244 288.029 255.106 290.661 266.906 290.438C283.388 290.126 299.414 284.36 312.938 275.062C315.556 273.262 317.992 271.255 320.406 269.188C317.394 279.023 314.323 288.838 311.156 298.625C308.628 306.44 306.102 314.262 303.344 322C301.491 327.198 299.154 332.159 296.75 337.125C294.176 342.443 291.438 347.683 288.562 352.844C276.531 374.439 260.908 393.747 242.469 410.188C231.931 419.583 220.495 428.229 207.562 434.062C196.875 438.883 185.357 441.588 173.656 442.219C163.512 442.765 153.334 441.888 143.344 440.125C129.471 437.677 116.086 433.703 105.219 424.281C103.029 422.383 100.998 420.299 99.1562 418.062C88.7509 405.425 85.2544 388.604 85.8125 372.562C86.1091 364.036 87.4917 355.534 89.875 347.344C91.7472 340.91 94.1794 334.566 97.5938 328.781C100.683 323.547 104.736 318.902 109.125 314.719C115.601 308.546 122.971 303.253 130.906 299.125C135.7 296.632 140.729 294.54 145.969 293.188C147.406 292.817 148.878 292.487 150.344 292.25C156.33 291.283 163.85 291.329 167.875 296.625C168.954 298.044 169.777 299.722 170.344 301.406C170.939 303.175 171.215 305.06 170.844 306.906C170.281 309.71 168.353 312.073 166.312 313.969C162.959 317.085 158.864 319.4 154.688 321.219C151.707 322.516 148.542 323.727 145.312 324.219C145.296 324.221 145.419 324.193 145.594 324.188C145.799 324.181 146.015 324.203 146.219 324.219C146.761 324.26 146.82 324.271 147.281 324.344C141.708 323.278 136.316 326.927 135.25 332.5C134.184 338.073 137.833 343.465 143.406 344.531C146.532 345.063 149.656 344.454 152.688 343.656C156.18 342.738 159.598 341.505 162.906 340.062C174.176 335.149 185.48 327.152 189.812 315.156C194.792 301.37 188.397 284.636 176.219 276.781C170.025 272.786 162.651 271.165 155.344 271.25C141.982 271.406 128.969 276.533 117.5 283.094C108.23 288.396 99.6023 294.963 92.1562 302.625C87.8364 307.07 83.8813 311.937 80.625 317.219C75.4019 325.691 71.8529 335.149 69.3438 344.75C61.975 372.946 63.6657 405.787 82.125 429.531C89.0068 438.383 97.9063 445.396 107.875 450.469C119.473 456.37 132.359 459.254 145.156 461.125C163.626 463.826 182.599 463.54 200.625 458.375C222.665 452.059 241.254 438.907 258.031 423.656C269.455 413.272 279.909 401.861 289.125 389.469C297.434 378.297 304.696 366.39 311.094 354.031C314.366 347.71 317.603 341.273 320.312 334.688C322.821 328.589 324.802 322.254 326.875 316C333.483 296.068 339.818 276.002 345.594 255.812C346.446 252.834 347.29 249.875 348.062 246.875C348.588 244.834 349.143 242.752 349.406 240.656C349.525 239.712 349.634 238.625 349.469 237.688C349.301 236.739 349.323 235.672 348.781 234.875C347.425 232.88 345.938 230.88 343.938 229.531C342.588 228.621 340.808 228.553 339.188 228.406C338.191 228.316 337.195 228.626 336.219 228.844C335.047 229.105 333.856 229.771 332.844 230.406C330.874 231.642 329.112 233.217 327.375 234.75C325.555 236.357 323.793 237.987 322.031 239.656C317.692 243.768 313.433 247.979 309.188 252.188C307.644 253.717 305.695 255.29 303.875 256.656C299.158 260.197 294.006 263.192 288.562 265.469C280.009 269.047 270.704 270.732 261.438 270.094C254.854 269.64 248.343 268.008 242.125 265.844C228.774 261.197 217.441 253.281 210.469 240.781C205.981 232.735 203.466 223.676 202.188 214.594C200.476 202.435 200.784 189.975 202.812 177.875C205.677 160.784 212.134 144.426 221.312 129.75C228.524 118.22 237.396 107.702 247.094 98.1875C261.071 84.4753 277.4 72.8521 295.719 65.7188C308.803 60.6237 322.667 58.3861 336.625 57.4062C341.031 57.0969 345.427 56.9323 349.844 56.9688C353.212 56.9966 356.611 57.1284 359.969 57.4062C377.502 58.857 397.156 64.1617 406.969 80.0938C410.138 85.2396 412.573 90.9627 414.562 96.6562C422.217 118.559 421.712 142.41 416.25 164.75C414.087 173.595 411.259 182.231 407.156 190.375C402.848 198.926 397.456 207.68 390.375 214.219C387.284 217.073 383.569 219.78 379.281 220.312C373.974 220.971 371.369 215.15 369.844 211.031C369.498 210.097 369.19 209.237 368.906 208.281C368.625 207.334 368.354 206.241 368.125 205.281C367.741 203.67 367.397 202.04 367.125 200.406C366.841 198.702 366.625 196.967 366.438 195.25C365.829 189.692 365.641 184.087 365.812 178.5C365.92 174.984 366.124 171.443 366.719 167.969C367.292 164.624 368.121 161.306 368.875 158C369.38 155.784 369.89 153.558 370.406 151.344C370.779 149.746 371.155 148.16 371.531 146.562C371.807 145.391 372.097 144.203 372.375 143.031C372.559 142.256 372.753 141.493 372.938 140.719C373.27 139.324 373.858 137.641 373.906 136.156C373.923 135.631 374.031 135.096 373.875 134.594C373.676 133.952 373.576 133.192 373.438 132.469C377.108 130.771 379.535 126.966 379.094 122.719C378.68 118.779 377.748 114.946 376.062 111.344C367.701 93.4753 345.858 87.9021 327.719 89.2812C324.962 89.4909 322.212 89.8652 319.5 90.4062C315.452 91.2139 311.534 92.4619 307.719 94.0312C281.498 104.817 262.38 129.497 251.344 154.906C247.12 164.632 243.855 174.887 242.781 185.469C241.429 198.801 242.592 213.72 248.812 225.781C250.684 229.41 253.064 232.779 255.938 235.688C257.895 237.669 260.085 239.461 262.469 240.906C275.644 248.898 293.068 246.166 306.188 239.594C311.618 236.873 316.509 233.208 321.094 229.25C328.781 222.613 335.12 214.728 340.844 206.375C343.004 203.223 345.039 199.997 347 196.719C347.8 204.568 349.198 212.473 352.219 219.781C356.072 229.104 362.794 237.255 373.062 239.406C387.619 242.456 400.752 232.819 409.688 222.344C411.176 220.599 412.583 218.788 413.938 216.938C420.222 208.351 425.453 198.813 429.344 188.906C432.105 181.875 434.176 174.51 435.875 167.156C439.204 152.746 440.703 137.873 439.75 123.094C438.805 108.445 435.41 93.9581 429.375 80.5625C426.145 73.3923 422.312 66.5502 416.938 60.75C400.39 42.8926 374.712 37.5566 351.312 37.1562ZM330.406 108.625C332.459 108.519 334.512 108.515 336.562 108.656C338.168 108.767 339.759 108.97 341.344 109.25C348.097 110.444 356 113.435 358.75 120.312C359.317 121.731 359.595 123.207 359.75 124.719C359.83 125.488 360.162 126.144 360.406 126.844C360.126 126.84 359.841 126.78 359.562 126.781C358.236 126.788 357.462 128.4 356.5 129.312C356.199 129.598 356.008 129.995 355.781 130.344C355.023 131.509 354.541 133.065 354.031 134.312C353.782 134.922 353.531 135.516 353.281 136.125C352.875 137.117 352.471 138.134 352.062 139.125C351.592 140.267 351.129 141.39 350.656 142.531C349.884 144.396 349.092 146.264 348.312 148.125C347.408 150.283 346.515 152.443 345.594 154.594C344.496 157.158 343.384 159.73 342.188 162.25C341.367 163.977 340.442 165.629 339.656 167.375C337.71 171.699 336 176.114 333.844 180.344C330.927 186.065 327.446 191.483 323.781 196.75C318.318 204.601 312.313 211.566 304.719 217.438C303.172 218.633 301.617 219.807 299.938 220.812C298.278 221.806 296.538 222.67 294.75 223.406C293.321 223.995 291.861 224.512 290.375 224.938C284.806 226.532 277.285 227.401 272.156 223.969C268.146 221.285 265.773 216.771 264.281 212.312C261.722 204.662 261.414 196.262 262.094 188.281C262.85 179.396 265.651 170.802 269.188 162.656C274.707 149.945 282.319 137.961 292.062 128.062C298.66 121.36 306.393 115.625 315.125 112.031C317.778 110.939 320.496 110.061 323.312 109.5C325.653 109.034 328.024 108.748 330.406 108.625Z" fill="#003049" stroke="none"/>
</g>
</g>
<g id="Layer-2-copy_5" vectornator:layerName="Layer 2 copy" visibility="hidden">
<g opacity="1">
<path d="M351.312 37.1562C347.567 37.0922 343.805 37.1783 340.062 37.3438C335.375 37.551 330.694 37.9148 326.031 38.4375C318.097 39.3269 310.19 40.5686 302.469 42.625C271.246 50.9401 244.302 70.6489 223.031 94.5312C212.01 106.905 202.479 120.528 195.375 135.531C191.959 142.747 189.103 150.24 186.875 157.906C185.146 163.854 183.779 169.913 182.812 176.031C182.078 180.681 181.563 185.333 181.281 190.031C179.758 215.425 184.414 243.517 201.75 263.125C204.575 266.321 207.703 269.278 211.062 271.906C217.485 276.932 224.698 280.79 232.281 283.75C243.244 288.029 255.106 290.661 266.906 290.438C283.388 290.126 299.414 284.36 312.938 275.062C315.556 273.262 317.992 271.255 320.406 269.188C317.394 279.023 314.323 288.838 311.156 298.625C308.628 306.44 306.102 314.262 303.344 322C301.491 327.198 299.154 332.159 296.75 337.125C294.176 342.443 291.438 347.683 288.562 352.844C276.531 374.439 260.908 393.747 242.469 410.188C231.931 419.583 220.495 428.229 207.562 434.062C196.875 438.883 185.357 441.588 173.656 442.219C163.512 442.765 153.334 441.888 143.344 440.125C129.471 437.677 116.086 433.703 105.219 424.281C103.029 422.383 100.998 420.299 99.1562 418.062C88.7509 405.425 85.2544 388.604 85.8125 372.562C86.1091 364.036 87.4917 355.534 89.875 347.344C91.7472 340.91 94.1794 334.566 97.5938 328.781C100.683 323.547 104.736 318.902 109.125 314.719C115.601 308.546 122.971 303.253 130.906 299.125C135.7 296.632 140.729 294.54 145.969 293.188C147.406 292.817 148.878 292.487 150.344 292.25C156.33 291.283 163.85 291.329 167.875 296.625C168.954 298.044 169.777 299.722 170.344 301.406C170.939 303.175 171.215 305.06 170.844 306.906C170.281 309.71 168.353 312.073 166.312 313.969C162.959 317.085 158.864 319.4 154.688 321.219C151.707 322.516 148.542 323.727 145.312 324.219C145.296 324.221 145.419 324.193 145.594 324.188C145.799 324.181 146.015 324.203 146.219 324.219C146.761 324.26 146.82 324.271 147.281 324.344C141.708 323.278 136.316 326.927 135.25 332.5C134.184 338.073 137.833 343.465 143.406 344.531C146.532 345.063 149.656 344.454 152.688 343.656C156.18 342.738 159.598 341.505 162.906 340.062C174.176 335.149 185.48 327.152 189.812 315.156C194.792 301.37 188.397 284.636 176.219 276.781C170.025 272.786 162.651 271.165 155.344 271.25C141.982 271.406 128.969 276.533 117.5 283.094C108.23 288.396 99.6023 294.963 92.1562 302.625C87.8364 307.07 83.8813 311.937 80.625 317.219C75.4019 325.691 71.8529 335.149 69.3438 344.75C61.975 372.946 63.6657 405.787 82.125 429.531C89.0068 438.383 97.9063 445.396 107.875 450.469C119.473 456.37 132.359 459.254 145.156 461.125C163.626 463.826 182.599 463.54 200.625 458.375C222.665 452.059 241.254 438.907 258.031 423.656C269.455 413.272 279.909 401.861 289.125 389.469C297.434 378.297 304.696 366.39 311.094 354.031C314.366 347.71 317.603 341.273 320.312 334.688C322.821 328.589 324.802 322.254 326.875 316C333.483 296.068 339.818 276.002 345.594 255.812C346.446 252.834 347.29 249.875 348.062 246.875C348.588 244.834 349.143 242.752 349.406 240.656C349.525 239.712 349.634 238.625 349.469 237.688C349.301 236.739 349.323 235.672 348.781 234.875C347.425 232.88 345.938 230.88 343.938 229.531C342.588 228.621 340.808 228.553 339.188 228.406C338.191 228.316 337.195 228.626 336.219 228.844C335.047 229.105 333.856 229.771 332.844 230.406C330.874 231.642 329.112 233.217 327.375 234.75C325.555 236.357 323.793 237.987 322.031 239.656C317.692 243.768 313.433 247.979 309.188 252.188C307.644 253.717 305.695 255.29 303.875 256.656C299.158 260.197 294.006 263.192 288.562 265.469C280.009 269.047 270.704 270.732 261.438 270.094C254.854 269.64 248.343 268.008 242.125 265.844C228.774 261.197 217.441 253.281 210.469 240.781C205.981 232.735 203.466 223.676 202.188 214.594C200.476 202.435 200.784 189.975 202.812 177.875C205.677 160.784 212.134 144.426 221.312 129.75C228.524 118.22 237.396 107.702 247.094 98.1875C261.071 84.4753 277.4 72.8521 295.719 65.7188C308.803 60.6237 322.667 58.3861 336.625 57.4062C341.031 57.0969 345.427 56.9323 349.844 56.9688C353.212 56.9966 356.611 57.1284 359.969 57.4062C377.502 58.857 397.156 64.1617 406.969 80.0938C410.138 85.2396 412.573 90.9627 414.562 96.6562C422.217 118.559 421.712 142.41 416.25 164.75C414.087 173.595 411.259 182.231 407.156 190.375C402.848 198.926 397.456 207.68 390.375 214.219C387.284 217.073 383.569 219.78 379.281 220.312C373.974 220.971 371.369 215.15 369.844 211.031C369.498 210.097 369.19 209.237 368.906 208.281C368.625 207.334 368.354 206.241 368.125 205.281C367.741 203.67 367.397 202.04 367.125 200.406C366.841 198.702 366.625 196.967 366.438 195.25C365.829 189.692 365.641 184.087 365.812 178.5C365.92 174.984 366.124 171.443 366.719 167.969C367.292 164.624 368.121 161.306 368.875 158C369.38 155.784 369.89 153.558 370.406 151.344C370.779 149.746 371.155 148.16 371.531 146.562C371.807 145.391 372.097 144.203 372.375 143.031C372.559 142.256 372.753 141.493 372.938 140.719C373.27 139.324 373.858 137.641 373.906 136.156C373.923 135.631 374.031 135.096 373.875 134.594C373.676 133.952 373.576 133.192 373.438 132.469C377.108 130.771 379.535 126.966 379.094 122.719C378.68 118.779 377.748 114.946 376.062 111.344C367.701 93.4753 345.858 87.9021 327.719 89.2812C324.962 89.4909 322.212 89.8652 319.5 90.4062C315.452 91.2139 311.534 92.4619 307.719 94.0312C281.498 104.817 262.38 129.497 251.344 154.906C247.12 164.632 243.855 174.887 242.781 185.469C241.429 198.801 242.592 213.72 248.812 225.781C250.684 229.41 253.064 232.779 255.938 235.688C257.895 237.669 260.085 239.461 262.469 240.906C275.644 248.898 293.068 246.166 306.188 239.594C311.618 236.873 316.509 233.208 321.094 229.25C328.781 222.613 335.12 214.728 340.844 206.375C343.004 203.223 345.039 199.997 347 196.719C347.8 204.568 349.198 212.473 352.219 219.781C356.072 229.104 362.794 237.255 373.062 239.406C387.619 242.456 400.752 232.819 409.688 222.344C411.176 220.599 412.583 218.788 413.938 216.938C420.222 208.351 425.453 198.813 429.344 188.906C432.105 181.875 434.176 174.51 435.875 167.156C439.204 152.746 440.703 137.873 439.75 123.094C438.805 108.445 435.41 93.9581 429.375 80.5625C426.145 73.3923 422.312 66.5502 416.938 60.75C400.39 42.8926 374.712 37.5566 351.312 37.1562ZM330.406 108.625C332.459 108.519 334.512 108.515 336.562 108.656C338.168 108.767 339.759 108.97 341.344 109.25C348.097 110.444 356 113.435 358.75 120.312C359.317 121.731 359.595 123.207 359.75 124.719C359.83 125.488 360.162 126.144 360.406 126.844C360.126 126.84 359.841 126.78 359.562 126.781C358.236 126.788 357.462 128.4 356.5 129.312C356.199 129.598 356.008 129.995 355.781 130.344C355.023 131.509 354.541 133.065 354.031 134.312C353.782 134.922 353.531 135.516 353.281 136.125C352.875 137.117 352.471 138.134 352.062 139.125C351.592 140.267 351.129 141.39 350.656 142.531C349.884 144.396 349.092 146.264 348.312 148.125C347.408 150.283 346.515 152.443 345.594 154.594C344.496 157.158 343.384 159.73 342.188 162.25C341.367 163.977 340.442 165.629 339.656 167.375C337.71 171.699 336 176.114 333.844 180.344C330.927 186.065 327.446 191.483 323.781 196.75C318.318 204.601 312.313 211.566 304.719 217.438C303.172 218.633 301.617 219.807 299.938 220.812C298.278 221.806 296.538 222.67 294.75 223.406C293.321 223.995 291.861 224.512 290.375 224.938C284.806 226.532 277.285 227.401 272.156 223.969C268.146 221.285 265.773 216.771 264.281 212.312C261.722 204.662 261.414 196.262 262.094 188.281C262.85 179.396 265.651 170.802 269.188 162.656C274.707 149.945 282.319 137.961 292.062 128.062C298.66 121.36 306.393 115.625 315.125 112.031C317.778 110.939 320.496 110.061 323.312 109.5C325.653 109.034 328.024 108.748 330.406 108.625Z" fill="#000000" stroke="none"/>
</g>
</g>
</svg>
