<?xml version="1.0" encoding="UTF-8" standalone="no"?>
<!DOCTYPE svg PUBLIC "-//W3C//DTD SVG 1.1//EN" "http://www.w3.org/Graphics/SVG/1.1/DTD/svg11.dtd">
<!-- Created with Vectornator (http://vectornator.io/) -->
<svg height="100%" stroke-miterlimit="10" style="fill-rule:nonzero;clip-rule:evenodd;stroke-linecap:round;stroke-linejoin:round;" version="1.1" viewBox="0 0 3370.82 2384.24" width="100%" xml:space="preserve" xmlns="http://www.w3.org/2000/svg" xmlns:vectornator="http://vectornator.io" xmlns:xlink="http://www.w3.org/1999/xlink">
<defs>
<linearGradient gradientTransform="matrix(1 0 0 1 0 0)" gradientUnits="userSpaceOnUse" id="LinearGradient" x1="1101.53" x2="1261.71" y1="96.7693" y2="2608.73">
<stop offset="0" stop-color="#ffa546"/>
<stop offset="1" stop-color="#ffffff"/>
</linearGradient>
<linearGradient gradientTransform="matrix(0.999985 0.00544287 -0.00544287 0.999985 2.64227 -2.49474)" gradientUnits="userSpaceOnUse" id="LinearGradient_2" x1="48.1401" x2="36.1952" y1="484.204" y2="893.822">
<stop offset="0" stop-color="#eae2b7"/>
<stop offset="1" stop-color="#ffffff"/>
</linearGradient>
<linearGradient gradientTransform="matrix(-1.03577 0.00544287 0.00563763 0.999985 3718.91 -92.6112)" gradientUnits="userSpaceOnUse" id="LinearGradient_3" x1="48.1401" x2="36.1952" y1="484.204" y2="893.822">
<stop offset="0" stop-color="#eae2b7"/>
<stop offset="1" stop-color="#ffffff"/>
</linearGradient>
<linearGradient gradientTransform="matrix(-1.18368 -0.0407833 -0.0444457 1.26377 481.606 272.378)" gradientUnits="userSpaceOnUse" id="LinearGradient_4" x1="48.1401" x2="36.1952" y1="484.204" y2="893.822">
<stop offset="0" stop-color="#eae2b7"/>
<stop offset="1" stop-color="#ffffff"/>
</linearGradient>
<linearGradient gradientTransform="matrix(1.02209 0 0 1 -30.2536 0)" gradientUnits="userSpaceOnUse" id="LinearGradient_5" x1="1823.9" x2="1976.6" y1="572.624" y2="1653.78">
<stop offset="0" stop-color="#ee9b00"/>
<stop offset="1" stop-color="#ffffff"/>
</linearGradient>
<linearGradient gradientTransform="matrix(1 0 0 1 0 0)" gradientUnits="userSpaceOnUse" id="LinearGradient_6" x1="3426.12" x2="3458.96" y1="993.084" y2="1531.75">
<stop offset="0" stop-color="#ff8300"/>
<stop offset="1" stop-color="#ffc2a4"/>
</linearGradient>
<linearGradient gradientTransform="matrix(1 0 0 1 0 0)" gradientUnits="userSpaceOnUse" id="LinearGradient_7" x1="3442.39" x2="3467.04" y1="1396.55" y2="1763.16">
<stop offset="0" stop-color="#bb3e03"/>
<stop offset="1" stop-color="#d18562"/>
</linearGradient>
<linearGradient gradientTransform="matrix(1 0 0 1 0 0)" gradientUnits="userSpaceOnUse" id="LinearGradient_8" x1="3504.22" x2="3513.98" y1="2193.73" y2="1588.53">
<stop offset="0" stop-color="#e37f4f"/>
<stop offset="1" stop-color="#9b2226"/>
</linearGradient>
<linearGradient gradientTransform="matrix(1 0 0 1 0 0)" gradientUnits="userSpaceOnUse" id="LinearGradient_9" x1="3562.78" x2="3559.53" y1="2047.31" y2="3420.4">
<stop offset="0" stop-color="#612123"/>
<stop offset="1" stop-color="#ba3439"/>
</linearGradient>
</defs>
<clipPath id="ArtboardFrame">
<rect height="2384.24" width="3370.82" x="0" y="0"/>
</clipPath>
<g clip-path="url(#ArtboardFrame)" id="Layer-1" vectornator:layerName="Layer 1">
<path d="M-42.7629 216.622L3577.12 216.622L3577.12 1862.41L-42.7629 1862.41L-42.7629 216.622Z" fill="url(#LinearGradient)" fill-rule="evenodd" opacity="1" stroke="none"/>
</g>
<g clip-path="url(#ArtboardFrame)" id="Layer-5" vectornator:layerName="Layer 5">
<path d="M106.023 636.128L848.461 648.144C848.461 648.144 920.613 594.945 804.04 529.756C804.04 529.756 809.256 466.449 746.055 441.745C682.853 417.041 639.866 482.579 639.866 482.579C639.866 482.579 642.026 309.634 488.482 323.414C334.939 337.195 329.358 467.491 329.305 477.234C289.537 424.487 245.65 390.836 198.249 410.334C150.848 429.832 136.588 493.394 152.757 519.044C140.749 498.805 45.6648 498.765 47.7361 565.767C49.8074 632.768 106.023 636.128 106.023 636.128Z" fill="url(#LinearGradient_2)" fill-rule="evenodd" opacity="0.389535" stroke="none"/>
<path d="M3611.83 546.012L2842.83 558.028C2842.83 558.028 2768.09 504.828 2888.84 439.64C2888.84 439.64 2883.43 376.332 2948.9 351.628C3014.36 326.924 3058.88 392.462 3058.88 392.462C3058.88 392.462 3056.65 219.518 3215.69 233.298C3374.72 247.078 3380.5 377.374 3380.56 387.118C3421.75 334.37 3467.21 300.719 3516.3 320.217C3565.4 339.715 3580.17 403.277 3563.42 428.927C3575.86 408.688 3674.35 408.649 3672.2 475.65C3670.06 542.652 3611.83 546.012 3611.83 546.012Z" fill="url(#LinearGradient_3)" fill-rule="evenodd" opacity="0.389535" stroke="none"/>
<path d="M326.766 1074.37L-552.461 1054.17C-552.461 1054.17-635.139 983.508-493.867 906.696C-493.867 906.696-496.819 826.457-420.768 798.255C-344.717 770.053-297.181 854.911-297.181 854.911C-297.181 854.911-290.935 636.288-109.931 661.018C71.0736 685.747 71.048 850.646 70.6149 862.96C120.361 798.207 174.01 757.78 229.113 784.675C284.216 811.571 297.857 892.563 277.417 924.202C292.657 899.201 405.184 903.684 399.323 988.243C393.463 1072.8 326.766 1074.37 326.766 1074.37Z" fill="url(#LinearGradient_4)" fill-rule="evenodd" opacity="0.389535" stroke="none"/>
</g>
<g id="Layer-3" vectornator:layerName="Layer 3">
<path d="M837.677 1071.69C837.677 498.681 1302.19 34.1634 1875.21 34.1634C2448.22 34.1634 2912.73 498.681 2912.73 1071.69C2912.73 1644.7 2448.22 2109.22 1875.21 2109.22C1302.19 2109.22 837.677 1644.7 837.677 1071.69Z" fill="#eae2b7" fill-rule="evenodd" opacity="0.474806" stroke="none"/>
<path d="M979.442 1071.69C979.442 576.975 1380.49 175.928 1875.21 175.928C2369.92 175.928 2770.97 576.975 2770.97 1071.69C2770.97 1566.41 2369.92 1967.46 1875.21 1967.46C1380.49 1967.46 979.442 1566.41 979.442 1071.69Z" fill="#eae2b7" fill-rule="evenodd" opacity="0.474806" stroke="none"/>
<path d="M1108.28 1071.69C1108.28 648.13 1451.64 304.764 1875.21 304.764C2298.77 304.764 2642.13 648.13 2642.13 1071.69C2642.13 1495.25 2298.77 1838.62 1875.21 1838.62C1451.64 1838.62 1108.28 1495.25 1108.28 1071.69Z" fill="#eae2b7" fill-rule="evenodd" opacity="0.614341" stroke="none"/>
<path d="M1228.79 1071.69C1228.79 714.688 1518.2 425.279 1875.21 425.279C2232.21 425.279 2521.62 714.688 2521.62 1071.69C2521.62 1428.7 2232.21 1718.11 1875.21 1718.11C1518.2 1718.11 1228.79 1428.7 1228.79 1071.69Z" fill="#eae2b7" fill-rule="evenodd" opacity="0.97093" stroke="none"/>
<path d="M1369.43 1071.69C1369.43 792.359 1600.88 565.915 1886.38 565.915C2171.88 565.915 2403.33 792.359 2403.33 1071.69C2403.33 1351.03 2171.88 1577.47 1886.38 1577.47C1600.88 1577.47 1369.43 1351.03 1369.43 1071.69Z" fill="url(#LinearGradient_5)" fill-rule="evenodd" opacity="1" stroke="none"/>
</g>
<g clip-path="url(#ArtboardFrame)" id="Layer-4" vectornator:layerName="Layer 4">
<path d="M-9.13537 1028.51C91.9162 1036.6 81.1218 1015.83 134.72 966.962C186.45 919.796 203.092 914.04 248.069 925.122C300.559 938.054 291.998 965.859 352.629 982.028C413.26 998.196 448.942 1081.37 561.028 1088.48C673.114 1095.6 740.343 1052.94 800.974 1010.5C861.604 968.057 900.826 932.706 982.161 904.82C1205.13 828.373 1234.39 815.726 1293 839.978C1351.61 864.23 1365.17 935.544 1401.55 1000.22C1437.92 1064.89 1468.24 1192.21 1532.91 1234.66C1597.59 1277.1 1704.7 1359.96 1732.99 1297.31C1761.29 1234.66 1741.08 1208.38 1805.75 1192.21C1870.42 1176.05 1979.56 1224.55 2072.53 1145.73C2165.5 1066.91 2306.5 1139.76 2318.63 1018.5C2330.76 897.233 2362.08 846.863 2428.13 842.735C2508.66 837.703 2490.88 854.703 2598 858.745C2705.11 862.787 2731.38 907.249 2800.1 925.439C2868.81 943.628 2917.19 1052.9 3025.85 999.28C3134.5 945.656 3158.96 892.174 3213.53 835.585C3268.1 778.997 3328.65 730.167 3405.45 724.104C3482.25 718.041 3446.37 784.784 3446.37 784.784L3458.96 2396.75L-128.376 2507.91L-128.376 1024.47C-128.376 1024.47-110.187 1020.43-9.13537 1028.51Z" fill="url(#LinearGradient_6)" fill-rule="evenodd" opacity="1" stroke="none"/>
<path d="M-23.2826 1279.12C-23.2826 1279.12 35.7778 1358.87 134.267 1373.12C237.838 1388.1 289.977 1359.96 368.798 1347.83C447.618 1335.71 437.513 1337.73 483.996 1386.23C530.48 1434.74 488.047 1464.3 564.846 1452.17C641.646 1440.04 692.163 1347.83 692.163 1347.83C692.163 1347.83 726.907 1270.78 783.495 1250.57C840.084 1230.36 880.453 1240.98 924.915 1182.37C969.378 1123.76 975.21 1095.27 1048.28 1111.16C1140.56 1131.22 1184.45 1155.87 1216.78 1212.46C1249.12 1269.05 1229.76 1244.76 1286.35 1271.04C1342.94 1297.31 1373.25 1252.85 1423.78 1281.14C1474.3 1309.43 1431.86 1370.07 1482.39 1376.13C1532.91 1382.19 1654.17 1394.32 1696.62 1364C1739.06 1333.69 1807.77 1244.76 1880.53 1258.91C1953.29 1273.06 1947.22 1368.04 2026.04 1420.59C2104.86 1473.14 2220.06 1477.18 2258.46 1436.76C2296.86 1396.34 2293.78 1361.44 2348.34 1363.46C2402.91 1365.49 2401.96 1392.3 2474.71 1380.17C2547.47 1368.04 2519.18 1353.9 2585.87 1329.65C2652.56 1305.39 2660.33 1318.85 2739.47 1289.22C2818.6 1259.6 2831.59 1252.39 2899.38 1229.31C2967.18 1206.23 3009.92 1222.55 3069.6 1252.39C3154.48 1294.83 3093.4 1335.66 3231.16 1328.84C3376.86 1321.63 3418.69 1258.16 3418.69 1258.16L3467.04 1186.15L3452.89 2459.4L-63.7032 2505.89L-203.154 1297.31L-23.2826 1279.12Z" fill="url(#LinearGradient_7)" fill-rule="evenodd" opacity="1" stroke="none"/>
<path d="M-19.9755 1560.78C-19.9755 1560.78 64.9079 1439.52 127.56 1451.64C190.212 1463.77 275.095 1649.7 351.894 1659.81C428.694 1669.91 606.497 1666.55 678.709 1642.6C807.825 1599.8 782.787 1605.21 866.82 1497.45C941.78 1401.32 901.52 1420.9 1024.23 1412.25C1095.25 1407.24 1290.48 1388.36 1308.67 1471.22C1326.85 1554.08 1513.99 1534.5 1600.89 1506.21C1687.8 1477.92 1774.7 1435.47 1829.27 1467.81C1883.84 1500.15 1887.3 1576.5 1946.49 1605.24C2051.77 1656.36 2065.26 1658.16 2198.41 1610.48C2301.43 1573.59 2457.81 1405.16 2476 1471.85C2494.19 1538.55 2534.61 1578.97 2615.45 1552.69C2696.29 1526.42 2744.8 1496.1 2801.39 1429.41C2857.97 1362.72 2886.27 1352.61 2950.94 1356.65C3015.61 1360.7 3031.78 1382.93 3082.31 1364.74C3132.83 1346.55 3138.9 1324.32 3203.57 1338.46C3268.24 1352.61 3266.22 1380.91 3336.96 1439.52C3407.7 1498.13 3458.22 1558.76 3458.22 1558.76L3504.7 2043.8L3468.33 2468.22L-141.237 2522.79L-205.91 1627.47L-19.9755 1560.78Z" fill="url(#LinearGradient_8)" fill-rule="evenodd" opacity="1" stroke="none"/>
<path d="M-53.0469 1760.86C-53.0469 1760.86 187.456 1712.36 246.066 1667.89C304.676 1623.43 383.496 1568.86 456.253 1585.03C529.01 1601.2 714.945 1702.25 773.555 1724.48C832.165 1746.71 1248.5 1839.68 1290.94 1831.6C1333.38 1823.51 1480.92 1772.99 1535.48 1762.88C1590.05 1752.78 1644.62 1813.41 1717.38 1781.07C1790.13 1748.73 1836.62 1702.25 1889.17 1696.19C1941.71 1690.12 2058.93 1720.44 2095.31 1704.27C2131.69 1688.1 2123.6 1655.77 2218.59 1657.79C2313.58 1659.81 2362.09 1698.21 2418.68 1708.31C2475.26 1718.42 2592.48 1694.17 2645.03 1710.33C2697.58 1726.5 2740.02 1762.88 2792.57 1772.99C2845.11 1783.09 3085.62 1801.28 3142.21 1781.07C3198.79 1760.86 3214.96 1772.99 3251.34 1807.34C3287.72 1841.7 3289.74 1904.35 3352.39 1896.27C3415.04 1888.18 3489.82 1928.61 3489.82 1928.61L3544.39 2330.79L3526.2 2484.39L-184.414 2540.98L-202.603 1827.55L-53.0469 1760.86Z" fill="url(#LinearGradient_9)" fill-rule="evenodd" opacity="1" stroke="none"/>
<path d="M248.087 1380.91C248.087 1190.04 281.566 1035.31 322.865 1035.31C364.164 1035.31 397.643 1190.04 397.643 1380.91C397.643 1571.77 364.164 1726.5 322.865 1726.5C281.566 1726.5 248.087 1571.77 248.087 1380.91Z" fill="#612123" fill-rule="evenodd" opacity="1" stroke="none"/>
<path d="M1466.86 1664.12C1466.86 1548.33 1491.06 1454.47 1520.91 1454.47C1550.76 1454.47 1574.96 1548.33 1574.96 1664.12C1574.96 1779.9 1550.76 1873.76 1520.91 1873.76C1491.06 1873.76 1466.86 1779.9 1466.86 1664.12Z" fill="#612123" fill-rule="evenodd" opacity="1" stroke="none"/>
<path d="M3072.93 1653.48C3072.93 1544.84 3053.01 1456.77 3028.44 1456.77C3003.87 1456.77 2983.95 1544.84 2983.95 1653.48C2983.95 1762.12 3003.87 1850.2 3028.44 1850.2C3053.01 1850.2 3072.93 1762.12 3072.93 1653.48Z" fill="#612123" fill-rule="evenodd" opacity="1" stroke="none"/>
<path d="M274.36 1251.56C274.36 1251.56 221.44 1283.31 198.703 1254.51C175.966 1225.71 179.372 1194.97 183.414 1136.36C187.456 1077.75 195.54 1047.44 163.204 1041.37C130.867 1035.31 121.7 1083.54 119.461 1120.31C114.988 1193.8 117.544 1198.28 119.461 1242.37C121.7 1293.86 137.354 1312.67 137.354 1312.67C137.354 1312.67 157.165 1336.31 187.839 1342.06C218.513 1347.81 263.886 1338.23 263.886 1338.23" fill="#612123" fill-rule="evenodd" opacity="1" stroke="none"/>
<path d="M1484.64 1663.33C1484.64 1663.33 1457.49 1674.86 1445.82 1664.4C1434.16 1653.95 1435.9 1642.78 1437.98 1621.5C1440.05 1600.23 1444.2 1589.22 1427.61 1587.02C1411.02 1584.82 1406.31 1602.33 1405.17 1615.68C1402.87 1642.36 1404.18 1643.98 1405.17 1659.99C1406.31 1678.68 1414.35 1685.51 1414.35 1685.51C1414.35 1685.51 1424.51 1694.1 1440.25 1696.19C1455.98 1698.27 1479.26 1694.79 1479.26 1694.79" fill="#612123" fill-rule="evenodd" opacity="1" stroke="none"/>
<path d="M1495.36 1517.11C1495.36 1517.11 1480.87 1518.26 1476.61 1512.1C1472.35 1505.93 1474.6 1501.36 1478.3 1492.45C1482 1483.55 1485.39 1479.37 1477.71 1476.08C1470.04 1472.79 1465.56 1479.7 1463.31 1485.3C1458.81 1496.51 1459.24 1497.4 1457.67 1504.46C1455.85 1512.7 1458.83 1516.79 1458.83 1516.79C1458.83 1516.79 1462.61 1521.93 1469.9 1525.05C1477.18 1528.17 1488.78 1529.95 1488.78 1529.95" fill="#612123" fill-rule="evenodd" opacity="1" stroke="none"/>
<path d="M3057.3 1579.86C3057.3 1579.86 3088.78 1597.93 3102.31 1581.54C3115.83 1565.15 3113.81 1547.65 3111.4 1514.29C3109 1480.93 3104.19 1463.67 3123.43 1460.22C3142.67 1456.77 3148.12 1484.22 3149.45 1505.15C3152.11 1546.98 3150.59 1549.53 3149.45 1574.63C3148.12 1603.93 3138.81 1614.64 3138.81 1614.64C3138.81 1614.64 3127.02 1628.1 3108.77 1631.37C3090.52 1634.65 3063.53 1629.19 3063.53 1629.19" fill="#612123" fill-rule="evenodd" opacity="1" stroke="none"/>
<path d="M379.489 1422.1C379.489 1422.1 419.502 1442.24 436.693 1423.97C453.884 1405.71 451.309 1386.21 448.253 1349.04C445.196 1311.88 439.084 1292.65 463.533 1288.81C487.983 1284.96 494.914 1315.55 496.607 1338.87C499.989 1385.47 498.056 1388.31 496.607 1416.27C494.914 1448.92 483.078 1460.85 483.078 1460.85C483.078 1460.85 468.099 1475.84 444.907 1479.49C421.714 1483.14 387.409 1477.06 387.409 1477.06" fill="#612123" fill-rule="evenodd" opacity="1" stroke="none"/>
<path d="M1544.25 1558.12C1544.25 1558.12 1573.18 1570.33 1585.6 1559.25C1598.03 1548.18 1596.17 1536.35 1593.96 1513.8C1591.75 1491.26 1587.33 1479.59 1605 1477.26C1622.68 1474.93 1627.69 1493.48 1628.91 1507.63C1631.36 1535.9 1629.96 1537.62 1628.91 1554.58C1627.69 1574.39 1619.13 1581.63 1619.13 1581.63C1619.13 1581.63 1608.31 1590.72 1591.54 1592.93C1574.78 1595.15 1549.98 1591.46 1549.98 1591.46" fill="#612123" fill-rule="evenodd" opacity="1" stroke="none"/>
<path d="M2994.75 1676.93C2994.75 1676.93 2970.95 1688.39 2960.72 1678C2950.49 1667.6 2952.02 1656.5 2953.84 1635.35C2955.66 1614.19 2959.3 1603.25 2944.75 1601.06C2930.2 1598.87 2926.08 1616.28 2925.07 1629.55C2923.06 1656.08 2924.21 1657.7 2925.07 1673.61C2926.08 1692.2 2933.12 1698.99 2933.12 1698.99C2933.12 1698.99 2942.03 1707.52 2955.83 1709.6C2969.63 1711.67 2990.04 1708.21 2990.04 1708.21" fill="#612123" fill-rule="evenodd" opacity="1" stroke="none"/>
</g>
</svg>
