<?xml version="1.0" encoding="UTF-8" standalone="no"?>
<!DOCTYPE svg PUBLIC "-//W3C//DTD SVG 1.1//EN" "http://www.w3.org/Graphics/SVG/1.1/DTD/svg11.dtd">
<!-- Created with Vectornator (http://vectornator.io/) -->
<svg height="50" stroke-miterlimit="10" style="fill-rule:nonzero;clip-rule:evenodd;stroke-linecap:round;stroke-linejoin:round;" version="1.1" viewBox="0 0 1024 1024" width="50" xml:space="preserve" xmlns="http://www.w3.org/2000/svg" xmlns:vectornator="http://vectornator.io" xmlns:xlink="http://www.w3.org/1999/xlink">
<defs>
<radialGradient cx="822.29" cy="389.076" gradientTransform="matrix(1 0 0 1 -41.7008 -86.2058)" gradientUnits="userSpaceOnUse" id="RadialGradient" r="801.488">
<stop offset="0" stop-color="#fac02c"/>
<stop offset="0.510331" stop-color="#fd9d6e"/>
<stop offset="1" stop-color="#ff7cae"/>
</radialGradient>
<filter color-interpolation-filters="sRGB" filterUnits="userSpaceOnUse" height="907.817" id="Filter" width="907.817" x="76.9282" y="67.4798">
<feDropShadow dx="18.8366" dy="9.38819" flood-color="#000000" flood-opacity="0.319239" in="SourceGraphic" result="Shadow" stdDeviation="25"/>
</filter>
<linearGradient gradientTransform="matrix(0.517924 0 0 0.574566 263.701 200.171)" gradientUnits="userSpaceOnUse" id="LinearGradient" x1="915.806" x2="288.877" y1="-68.013" y2="869.153">
<stop offset="0" stop-color="#ffffff"/>
<stop offset="0.514463" stop-color="#75e3cd"/>
<stop offset="1" stop-color="#5fb6a4"/>
</linearGradient>
<filter color-interpolation-filters="sRGB" filterUnits="userSpaceOnUse" height="583.889" id="Filter_2" width="431.073" x="334.289" y="228.961">
<feDropShadow dx="31.6719" dy="15.7853" flood-color="#000000" flood-opacity="0.515185" in="SourceGraphic" result="Shadow" stdDeviation="9.84496"/>
</filter>
<filter color-interpolation-filters="sRGB" filterUnits="userSpaceOnUse" height="672.114" id="Filter_3" width="512.485" x="258.466" y="189.576">
<feDropShadow dx="-10.2012" dy="21.7797" flood-color="#000000" flood-opacity="0.380051" in="SourceGraphic" result="Shadow" stdDeviation="19.3895"/>
</filter>
<filter color-interpolation-filters="sRGB" filterUnits="userSpaceOnUse" height="119.699" id="Filter_4" width="371.671" x="328.873" y="436.17">
<feDropShadow dx="-10.2012" dy="21.7797" flood-color="#000000" flood-opacity="0.380051" in="SourceGraphic" result="Shadow" stdDeviation="19.3895"/>
</filter>
<filter color-interpolation-filters="sRGB" filterUnits="userSpaceOnUse" height="119.699" id="Filter_5" width="371.671" x="328.873" y="537.873">
<feDropShadow dx="-10.2012" dy="21.7797" flood-color="#000000" flood-opacity="0.380051" in="SourceGraphic" result="Shadow" stdDeviation="19.3895"/>
</filter>
<filter color-interpolation-filters="sRGB" filterUnits="userSpaceOnUse" height="119.699" id="Filter_6" width="371.671" x="328.873" y="639.576">
<feDropShadow dx="-10.2012" dy="21.7797" flood-color="#000000" flood-opacity="0.380051" in="SourceGraphic" result="Shadow" stdDeviation="19.3895"/>
</filter>
<filter color-interpolation-filters="sRGB" filterUnits="userSpaceOnUse" height="192.974" id="Filter_7" width="190.117" x="346.801" y="278.689">
<feDropShadow dx="-10.2012" dy="21.7797" flood-color="#000000" flood-opacity="0.380051" in="SourceGraphic" result="Shadow" stdDeviation="19.3895"/>
</filter>
</defs>
<g id="Layer-2" vectornator:layerName="Layer 2">
<path d="M108.092 512C108.092 288.928 288.928 108.092 512 108.092C735.072 108.092 915.908 288.928 915.908 512C915.908 735.072 735.072 915.908 512 915.908C288.928 915.908 108.092 735.072 108.092 512Z" fill="url(#RadialGradient)" fill-rule="nonzero" filter="url(#Filter)" stroke="none" vectornator:shadowAngle="0.462368" vectornator:shadowColor="#000000" vectornator:shadowOffset="21.0465" vectornator:shadowOpacity="0.319239" vectornator:shadowRadius="50"/>
</g>
<g id="Layer-1" vectornator:layerName="Layer 1">
<path d="M390.306 232.866L657.984 232.866C688.921 232.866 714 259.048 714 291.346L714 718.895C714 751.192 688.921 777.375 657.984 777.375L390.306 777.375C359.369 777.375 334.289 751.192 334.289 718.895L334.289 291.346C334.289 259.048 359.369 232.866 390.306 232.866Z" fill="url(#LinearGradient)" fill-rule="nonzero" filter="url(#Filter_2)" stroke="none" vectornator:shadowAngle="0.462368" vectornator:shadowColor="#000000" vectornator:shadowOffset="35.3876" vectornator:shadowOpacity="0.515185" vectornator:shadowRadius="19.6899"/>
<path d="M392.272 224.503L657.546 224.503C694.494 224.503 724.445 254.455 724.445 291.402L724.445 716.305C724.445 753.252 694.494 783.203 657.546 783.203L392.272 783.203C355.325 783.203 325.374 753.252 325.374 716.305L325.374 291.402C325.374 254.455 355.325 224.503 392.272 224.503Z" fill="#ffffff" fill-opacity="0.0202703" fill-rule="nonzero" filter="url(#Filter_3)" stroke="#ffffff" stroke-linecap="butt" stroke-linejoin="round" stroke-width="35.8557" vectornator:shadowAngle="2.00883" vectornator:shadowColor="#000000" vectornator:shadowOffset="24.0504" vectornator:shadowOpacity="0.380051" vectornator:shadowRadius="38.7791"/>
<path d="M395.781 471.097L654.038 471.097L654.038 477.382L395.781 477.382L395.781 471.097Z" fill="#ffffff" fill-opacity="0" fill-rule="nonzero" filter="url(#Filter_4)" stroke="#ffffff" stroke-linecap="butt" stroke-linejoin="round" stroke-width="35.8557" vectornator:shadowAngle="2.00883" vectornator:shadowColor="#000000" vectornator:shadowOffset="24.0504" vectornator:shadowOpacity="0.380051" vectornator:shadowRadius="38.7791"/>
<path d="M395.781 572.8L654.038 572.8L654.038 579.085L395.781 579.085L395.781 572.8Z" fill="#ffffff" fill-opacity="0" fill-rule="nonzero" filter="url(#Filter_5)" stroke="#ffffff" stroke-linecap="butt" stroke-linejoin="round" stroke-width="35.8557" vectornator:shadowAngle="2.00883" vectornator:shadowColor="#000000" vectornator:shadowOffset="24.0504" vectornator:shadowOpacity="0.380051" vectornator:shadowRadius="38.7791"/>
<path d="M395.781 674.503L654.038 674.503L654.038 680.788L395.781 680.788L395.781 674.503Z" fill="#ffffff" fill-opacity="0" fill-rule="nonzero" filter="url(#Filter_6)" stroke="#ffffff" stroke-linecap="butt" stroke-linejoin="round" stroke-width="35.8557" vectornator:shadowAngle="2.00883" vectornator:shadowColor="#000000" vectornator:shadowOffset="24.0504" vectornator:shadowOpacity="0.380051" vectornator:shadowRadius="38.7791"/>
<path d="M420.867 295.688L483.254 295.688C497.109 295.688 508.34 306.919 508.34 320.774L508.34 386.018C508.34 399.873 497.109 411.104 483.254 411.104L420.867 411.104C407.012 411.104 395.781 399.873 395.781 386.018L395.781 320.774C395.781 306.919 407.012 295.688 420.867 295.688Z" fill="#ffffff" fill-rule="nonzero" filter="url(#Filter_7)" stroke="none" vectornator:shadowAngle="2.00883" vectornator:shadowColor="#000000" vectornator:shadowOffset="24.0504" vectornator:shadowOpacity="0.380051" vectornator:shadowRadius="38.7791"/>
</g>
</svg>
