<?xml version="1.0" encoding="UTF-8" standalone="no"?>
<!DOCTYPE svg PUBLIC "-//W3C//DTD SVG 1.1//EN" "http://www.w3.org/Graphics/SVG/1.1/DTD/svg11.dtd">
<!-- Created with Vectornator (http://vectornator.io/) -->
<svg height="40" stroke-miterlimit="10" style="fill-rule:nonzero;clip-rule:evenodd;stroke-linecap:round;stroke-linejoin:round;" version="1.1" viewBox="0 0 1024 1024" width="40" xml:space="preserve" xmlns="http://www.w3.org/2000/svg" xmlns:vectornator="http://vectornator.io" xmlns:xlink="http://www.w3.org/1999/xlink">
<defs>
<filter color-interpolation-filters="sRGB" filterUnits="userSpaceOnUse" height="817.178" id="Filter" width="817.192" x="137.671" y="129.007">
<feDropShadow dx="14.5483" dy="19.1512" flood-color="#000000" flood-opacity="0.380051" in="SourceGraphic" result="Shadow" stdDeviation="19.3895"/>
</filter>
</defs>
<g id="Layer-2-copy" vectornator:layerName="Layer 2 copy">
<path d="M229.594 148.688C214.073 149.286 199.273 154.945 188.312 165.906C163.259 190.959 158.358 243.64 186.031 271.312L431.5 519.719L184.375 763.906C156.702 791.579 154.134 836.791 179.188 861.844C204.241 886.897 256.921 891.798 284.594 864.125L531.125 620.531L775.156 867.5C802.829 895.173 847.702 895.173 875.375 867.5C903.048 839.827 903.048 794.954 875.375 767.281L631.938 520.906L880.781 275C908.454 247.327 908.454 202.454 880.781 174.781C853.108 147.108 808.235 147.108 780.562 174.781L532.312 420.094L286.25 171.094C270.684 155.528 249.549 147.918 229.594 148.688Z" fill="#ffffff" fill-rule="nonzero" filter="url(#Filter)" stroke="none" vectornator:shadowAngle="0.921146" vectornator:shadowColor="#000000" vectornator:shadowOffset="24.0504" vectornator:shadowOpacity="0.380051" vectornator:shadowRadius="38.7791"/>
</g>
</svg>
