<?xml version="1.0" encoding="UTF-8" standalone="no"?>
<!DOCTYPE svg PUBLIC "-//W3C//DTD SVG 1.1//EN" "http://www.w3.org/Graphics/SVG/1.1/DTD/svg11.dtd">
<!-- Created with Vectornator (http://vectornator.io/) -->
<svg height="100%" stroke-miterlimit="10" style="fill-rule:nonzero;clip-rule:evenodd;stroke-linecap:round;stroke-linejoin:round;" version="1.1" viewBox="0 0 1440 1024" width="100%" xml:space="preserve" xmlns="http://www.w3.org/2000/svg" xmlns:vectornator="http://vectornator.io" xmlns:xlink="http://www.w3.org/1999/xlink">
<defs>
<path d="M-59.1129 4.57266L1500.91 4.57266L1500.91 897.855L-59.1129 897.855L-59.1129 4.57266Z" id="Fill"/>
<linearGradient gradientTransform="matrix(0.956853 0 0 0.958269 54.8786 83.0334)" gradientUnits="userSpaceOnUse" id="LinearGradient" x1="687.997" x2="703.004" y1="731.428" y2="3.14074">
<stop offset="0.338843" stop-color="#ff7cae"/>
<stop offset="0.797521" stop-color="#ff9320"/>
<stop offset="1" stop-color="#fac02c"/>
</linearGradient>
<filter color-interpolation-filters="sRGB" filterUnits="userSpaceOnUse" height="1009.9" id="Filter" width="1514.16" x="-35.4714" y="30.8911">
<feGaussianBlur in="SourceGraphic" result="Blur" stdDeviation="49.6124"/>
</filter>
<linearGradient gradientTransform="matrix(0.733335 0 0 0.733335 152.467 217.433)" gradientUnits="userSpaceOnUse" id="LinearGradient_2" x1="598.008" x2="538.831" y1="283.108" y2="625.115">
<stop offset="0" stop-color="#fac02c"/>
<stop offset="1" stop-color="#ff9320"/>
</linearGradient>
<filter color-interpolation-filters="sRGB" filterUnits="userSpaceOnUse" height="461.211" id="Filter_2" width="461.211" x="358.356" y="312.283">
<feDropShadow dx="-0.131463" dy="-49.9998" flood-color="#fac02c" flood-opacity="0.267001" in="SourceGraphic" result="Shadow" stdDeviation="25"/>
</filter>
<linearGradient gradientTransform="matrix(-0.953691 0 0 1 1274.96 -62.3237)" gradientUnits="userSpaceOnUse" id="LinearGradient_3" x1="215.419" x2="280.072" y1="176.831" y2="317.142">
<stop offset="0" stop-color="#ff9320" stop-opacity="0"/>
<stop offset="1" stop-color="#bc6d19" stop-opacity="0.896396"/>
</linearGradient>
<linearGradient gradientTransform="matrix(1 0 0 1 -6.30431 80.9053)" gradientUnits="userSpaceOnUse" id="LinearGradient_4" x1="215.419" x2="280.072" y1="176.831" y2="317.142">
<stop offset="0" stop-color="#ff9320" stop-opacity="0"/>
<stop offset="1" stop-color="#bc6d19" stop-opacity="0.896396"/>
</linearGradient>
<linearGradient gradientTransform="matrix(0.74322 0 0 0.688163 261.441 34.2736)" gradientUnits="userSpaceOnUse" id="LinearGradient_5" x1="212.47" x2="280.072" y1="184.249" y2="317.142">
<stop offset="0" stop-color="#ff9320" stop-opacity="0"/>
<stop offset="1" stop-color="#bc6d19" stop-opacity="0.896396"/>
</linearGradient>
<linearGradient gradientTransform="matrix(-1.31449 0.133991 0.101408 0.994845 1485.1 90.0437)" gradientUnits="userSpaceOnUse" id="LinearGradient_6" x1="215.419" x2="280.072" y1="176.831" y2="317.142">
<stop offset="0" stop-color="#ff9320" stop-opacity="0"/>
<stop offset="1" stop-color="#bc6d19" stop-opacity="0.896396"/>
</linearGradient>
<linearGradient gradientTransform="matrix(-1.31449 0.133991 0.101408 0.994845 1113.49 57.0547)" gradientUnits="userSpaceOnUse" id="LinearGradient_7" x1="215.419" x2="280.072" y1="176.831" y2="317.142">
<stop offset="0" stop-color="#ff9320" stop-opacity="0"/>
<stop offset="1" stop-color="#bc6d19" stop-opacity="0.896396"/>
</linearGradient>
<path d="M978.881 188.836L1329.99 845.54L627.774 845.54L978.881 188.836Z" id="Fill_2"/>
<linearGradient gradientTransform="matrix(0.776212 0 0 0.86347 427.576 146.053)" gradientUnits="userSpaceOnUse" id="LinearGradient_8" x1="740.031" x2="756.603" y1="270.233" y2="757.206">
<stop offset="0" stop-color="#8f8f8f"/>
<stop offset="1" stop-color="#525252"/>
</linearGradient>
<linearGradient gradientTransform="matrix(0.776212 0 0 0.86347 631.416 -23.462)" gradientUnits="userSpaceOnUse" id="LinearGradient_9" x1="472.324" x2="638.047" y1="293.18" y2="687.092">
<stop offset="0" stop-color="#ffffff"/>
<stop offset="1" stop-color="#989898"/>
</linearGradient>
<path d="M375.223 341.4L664.39 837.823L86.056 837.823L375.223 341.4Z" id="Fill_3"/>
<linearGradient gradientTransform="matrix(0.776212 0 0 0.988533 28.4997 34.6169)" gradientUnits="userSpaceOnUse" id="LinearGradient_10" x1="448.102" x2="537.338" y1="474.201" y2="943.326">
<stop offset="0" stop-color="#b7b7b7"/>
<stop offset="1" stop-color="#696969"/>
</linearGradient>
<linearGradient gradientTransform="matrix(0.776212 0 0 0.988533 28.4997 34.6169)" gradientUnits="userSpaceOnUse" id="LinearGradient_11" x1="446.828" x2="581.956" y1="327.599" y2="778.877">
<stop offset="0" stop-color="#ffffff"/>
<stop offset="1" stop-color="#989898"/>
</linearGradient>
<path d="M1158.55 416.883L1391.78 831.994L925.316 831.994L1158.55 416.883Z" id="Fill_4"/>
<linearGradient gradientTransform="matrix(0.588857 0 0 1.00081 573.614 21.2283)" gradientUnits="userSpaceOnUse" id="LinearGradient_12" x1="987.342" x2="978.418" y1="447.43" y2="1024.91">
<stop offset="0" stop-color="#aaaaaa"/>
<stop offset="1" stop-color="#525252"/>
</linearGradient>
<linearGradient gradientTransform="matrix(0.588857 0 0 1.00081 894.902 69.7098)" gradientUnits="userSpaceOnUse" id="LinearGradient_13" x1="457.026" x2="625.299" y1="377.316" y2="661.596">
<stop offset="0" stop-color="#ffffff"/>
<stop offset="1" stop-color="#989898"/>
</linearGradient>
<path d="M730.433 362.638L629.214 537.951L677.026 537.951L599.433 672.357L628.776 672.357L542.058 822.544L924.651 822.544L837.964 672.357L862.62 672.357L785.026 537.951L831.651 537.951L730.433 362.638Z" id="Fill_5"/>
<linearGradient gradientTransform="matrix(1 0 0 1 25.8545 87.6756)" gradientUnits="userSpaceOnUse" id="LinearGradient_14" x1="781.727" x2="809.193" y1="403.523" y2="732.526">
<stop offset="0" stop-color="#6e926d"/>
<stop offset="1" stop-color="#3e5a3d"/>
</linearGradient>
<linearGradient gradientTransform="matrix(-1.08108 0 0 1 1490.95 87.6756)" gradientUnits="userSpaceOnUse" id="LinearGradient_15" x1="740.821" x2="571.352" y1="326.386" y2="623.248">
<stop offset="0" stop-color="#ffffff"/>
<stop offset="1" stop-color="#6e926d" stop-opacity="0.67809"/>
</linearGradient>
<path d="M999.579 416.278L922.695 571.812L959.013 571.812L900.074 691.054L922.363 691.054L856.493 824.298L1147.1 824.298L1081.26 691.054L1099.99 691.054L1041.05 571.812L1076.46 571.812L999.579 416.278Z" id="Fill_6"/>
<linearGradient gradientTransform="matrix(0.759583 0 0 0.88718 464.394 172.337)" gradientUnits="userSpaceOnUse" id="LinearGradient_16" x1="781.727" x2="809.193" y1="403.523" y2="732.526">
<stop offset="0" stop-color="#6e926d"/>
<stop offset="1" stop-color="#3e5a3d"/>
</linearGradient>
<linearGradient gradientTransform="matrix(-0.821171 0 0 0.88718 1577.25 172.337)" gradientUnits="userSpaceOnUse" id="LinearGradient_17" x1="740.821" x2="571.352" y1="326.386" y2="623.248">
<stop offset="0" stop-color="#ffffff"/>
<stop offset="1" stop-color="#6e926d" stop-opacity="0.67809"/>
</linearGradient>
<path d="M528.932 502.564L454.973 624.092L489.909 624.092L433.212 717.264L454.653 717.264L391.289 821.376L670.845 821.376L607.504 717.264L625.52 717.264L568.823 624.092L602.891 624.092L528.932 502.564Z" id="Fill_7"/>
<linearGradient gradientTransform="matrix(0.730686 0 0 0.693211 14.1066 311.957)" gradientUnits="userSpaceOnUse" id="LinearGradient_18" x1="781.727" x2="809.193" y1="403.523" y2="732.526">
<stop offset="0" stop-color="#6e926d"/>
<stop offset="1" stop-color="#3e5a3d"/>
</linearGradient>
<linearGradient gradientTransform="matrix(-0.789931 0 0 0.693211 1084.63 311.957)" gradientUnits="userSpaceOnUse" id="LinearGradient_19" x1="740.821" x2="571.352" y1="326.386" y2="623.248">
<stop offset="0" stop-color="#ffffff"/>
<stop offset="1" stop-color="#6e926d" stop-opacity="0.67809"/>
</linearGradient>
<path d="M341.103 461.753L275.989 599.483L306.747 599.483L256.83 705.077L275.707 705.077L219.921 823.068L466.044 823.068L410.278 705.077L426.14 705.077L376.223 599.483L406.217 599.483L341.103 461.753Z" id="Fill_8"/>
<linearGradient gradientTransform="matrix(0.643302 0 0 0.785629 -112.154 245.734)" gradientUnits="userSpaceOnUse" id="LinearGradient_20" x1="781.727" x2="809.193" y1="403.523" y2="732.526">
<stop offset="0" stop-color="#6e926d"/>
<stop offset="1" stop-color="#3e5a3d"/>
</linearGradient>
<linearGradient gradientTransform="matrix(-0.695462 0 0 0.785629 830.343 245.734)" gradientUnits="userSpaceOnUse" id="LinearGradient_21" x1="740.821" x2="571.352" y1="326.386" y2="623.248">
<stop offset="0" stop-color="#ffffff"/>
<stop offset="1" stop-color="#6e926d" stop-opacity="0.67809"/>
</linearGradient>
</defs>
<clipPath id="ArtboardFrame">
<rect height="1024" width="1440" x="0" y="0"/>
</clipPath>
<g clip-path="url(#ArtboardFrame)" id="Layer-7" vectornator:layerName="Layer 7">
<g opacity="1">
<use fill="#ff7cae" fill-opacity="0" fill-rule="nonzero" opacity="0.998062" stroke="none" xlink:href="#Fill"/>
<clipPath id="ClipPath">
<use xlink:href="#Fill"/>
</clipPath>
<g clip-path="url(#ClipPath)">
<path d="M90.9231 784.047C90.9231 668.632 64.0115 379.269 191.809 244.024C296.433 133.303 718.029 157.994 718.029 157.994C718.029 157.994 1082.88 132.527 1196.93 228.252C1346.54 353.829 1354.65 632.496 1354.65 751.604C1354.65 961.504 1099.5 892.017 714.376 892.017C329.254 892.017 90.9231 993.947 90.9231 784.047Z" fill="url(#LinearGradient)" fill-rule="nonzero" filter="url(#Filter)" opacity="0.998062" stroke="none"/>
</g>
</g>
</g>
<g id="Layer-6" vectornator:layerName="Layer 6">
<path d="M408.487 592.888C408.487 493.142 489.347 412.283 589.093 412.283C688.838 412.283 769.698 493.142 769.698 592.888C769.698 692.634 688.838 773.493 589.093 773.493C489.347 773.493 408.487 692.634 408.487 592.888Z" fill="url(#LinearGradient_2)" fill-rule="nonzero" filter="url(#Filter_2)" stroke="none" vectornator:shadowAngle="4.70976" vectornator:shadowColor="#fac02c" vectornator:shadowOffset="50" vectornator:shadowOpacity="0.267001" vectornator:shadowRadius="50"/>
</g>
<g id="Layer-8" vectornator:layerName="Layer 8">
<path d="M1161.35 119.322L1046.56 100.752L969.81 238.311L1091.82 258.945L1161.35 119.322Z" fill="url(#LinearGradient_3)" fill-rule="nonzero" opacity="0.350775" stroke="none"/>
<path d="M112.823 262.551L233.188 243.981L313.66 381.54L185.73 402.174L112.823 262.551Z" fill="url(#LinearGradient_4)" fill-rule="nonzero" opacity="0.350775" stroke="none"/>
<path d="M349.979 159.275L439.437 146.496L499.245 241.159L404.165 255.358L349.979 159.275Z" fill="url(#LinearGradient_5)" fill-rule="nonzero" opacity="0.350775" stroke="none"/>
<path d="M1346.93 286.715L1186.83 284.368L1095 432.001L1265.26 435.387L1346.93 286.715Z" fill="url(#LinearGradient_6)" fill-rule="nonzero" opacity="0.350775" stroke="none"/>
<path d="M975.321 253.726L815.22 251.379L723.389 399.012L893.645 402.398L975.321 253.726Z" fill="url(#LinearGradient_7)" fill-rule="nonzero" opacity="0.350775" stroke="none"/>
<g opacity="1">
<clipPath id="ClipPath_2">
<path d="M734.853 335.817L886.672 335.817C898.22 335.817 907.581 343 907.581 351.86L907.581 398.845C907.581 407.706 898.22 414.888 886.672 414.888L734.853 414.888C723.306 414.888 713.944 407.706 713.944 398.845L713.944 351.86C713.944 343 723.306 335.817 734.853 335.817Z"/>
</clipPath>
<g clip-path="url(#ClipPath_2)">
<path d="M713.531 398.15C713.531 385.072 729.287 374.47 748.723 374.47C768.16 374.47 783.916 385.072 783.916 398.15C783.916 411.228 768.16 421.83 748.723 421.83C729.287 421.83 713.531 411.228 713.531 398.15Z" fill="#ffffff" fill-rule="nonzero" opacity="1" stroke="none"/>
<path d="M762.499 378.825C762.499 368.621 775.192 360.348 790.849 360.348C806.506 360.348 819.198 368.621 819.198 378.825C819.198 389.03 806.506 397.302 790.849 397.302C775.192 397.302 762.499 389.03 762.499 378.825Z" fill="#ffffff" fill-rule="nonzero" opacity="1" stroke="none"/>
<path d="M791.736 404.734C791.736 391.421 808.295 380.629 828.721 380.629C849.147 380.629 865.706 391.421 865.706 404.734C865.706 418.047 849.147 428.839 828.721 428.839C808.295 428.839 791.736 418.047 791.736 404.734Z" fill="#ffffff" fill-rule="nonzero" opacity="1" stroke="none"/>
<path d="M850.02 406.234C850.02 399.138 858.846 393.385 869.734 393.385C880.622 393.385 889.448 399.138 889.448 406.234C889.448 413.33 880.622 419.083 869.734 419.083C858.846 419.083 850.02 413.33 850.02 406.234Z" fill="#ffffff" fill-rule="nonzero" opacity="1" stroke="none"/>
<path d="M755.566 402.504C755.566 393.355 770.739 385.939 789.455 385.939C808.172 385.939 823.344 393.355 823.344 402.504C823.344 411.653 808.172 419.07 789.455 419.07C770.739 419.07 755.566 411.653 755.566 402.504Z" fill="#ffffff" fill-rule="nonzero" opacity="1" stroke="none"/>
</g>
</g>
<g opacity="1">
<clipPath id="ClipPath_3">
<path d="M961.249 172.818L1092.14 172.818C1106.83 172.818 1118.74 183.055 1118.74 195.682L1118.74 242.908C1118.74 255.535 1106.83 265.772 1092.14 265.772L961.249 265.772C946.558 265.772 934.649 255.535 934.649 242.908L934.649 195.682C934.649 183.055 946.558 172.818 961.249 172.818Z"/>
</clipPath>
<g clip-path="url(#ClipPath_3)">
<path d="M962.946 247.372C962.946 236.459 972.05 227.613 983.281 227.613C994.511 227.613 1003.62 236.459 1003.62 247.372C1003.62 258.284 994.511 267.131 983.281 267.131C972.05 267.131 962.946 258.284 962.946 247.372Z" fill="#ffffff" fill-rule="nonzero" opacity="1" stroke="none"/>
<path d="M987.402 237.712C987.402 224.912 998.081 214.536 1011.25 214.536C1024.43 214.536 1035.11 224.912 1035.11 237.712C1035.11 250.513 1024.43 260.889 1011.25 260.889C998.081 260.889 987.402 250.513 987.402 237.712Z" fill="#ffffff" fill-rule="nonzero" opacity="1" stroke="none"/>
<path d="M1018.79 222.221C1018.79 207.467 1031.09 195.507 1046.28 195.507C1061.46 195.507 1073.77 207.467 1073.77 222.221C1073.77 236.974 1061.46 248.935 1046.28 248.935C1031.09 248.935 1018.79 236.974 1018.79 222.221Z" fill="#ffffff" fill-rule="nonzero" opacity="1" stroke="none"/>
<path d="M1053.45 244.421C1053.45 232.362 1063.51 222.587 1075.92 222.587C1088.33 222.587 1098.39 232.362 1098.39 244.421C1098.39 256.481 1088.33 266.256 1075.92 266.256C1063.51 266.256 1053.45 256.481 1053.45 244.421Z" fill="#ffffff" fill-rule="nonzero" opacity="1" stroke="none"/>
<path d="M966.06 256.87C966.06 248.445 992.139 241.616 1024.31 241.616C1056.48 241.616 1082.56 248.445 1082.56 256.87C1082.56 265.295 1056.48 272.124 1024.31 272.124C992.139 272.124 966.06 265.295 966.06 256.87Z" fill="#ffffff" fill-rule="nonzero" opacity="1" stroke="none"/>
</g>
</g>
</g>
<g id="Layer-1" vectornator:layerName="Layer 1">
<g opacity="1">
<use fill="url(#LinearGradient_8)" fill-rule="nonzero" opacity="1" stroke="none" xlink:href="#Fill_2"/>
<clipPath id="ClipPath_4">
<use xlink:href="#Fill_2"/>
</clipPath>
<g clip-path="url(#ClipPath_4)">
<path d="M979.238 174.652L1301.82 174.652L1301.82 793.274L979.238 793.274L979.238 174.652Z" fill="url(#LinearGradient_9)" fill-rule="nonzero" opacity="0.170542" stroke="none"/>
</g>
</g>
<g opacity="1">
<use fill="url(#LinearGradient_10)" fill-rule="nonzero" opacity="1" stroke="none" xlink:href="#Fill_3"/>
<clipPath id="ClipPath_5">
<use xlink:href="#Fill_3"/>
</clipPath>
<g clip-path="url(#ClipPath_5)">
<path d="M376.322 261.425L698.903 261.425L698.903 969.646L376.322 969.646L376.322 261.425Z" fill="url(#LinearGradient_11)" fill-rule="nonzero" opacity="0.170542" stroke="none"/>
</g>
</g>
<g opacity="1">
<use fill="url(#LinearGradient_12)" fill-rule="nonzero" opacity="1" stroke="none" xlink:href="#Fill_4"/>
<clipPath id="ClipPath_6">
<use xlink:href="#Fill_4"/>
</clipPath>
<g clip-path="url(#ClipPath_6)">
<path d="M1158.77 299.335L1403.49 299.335L1403.49 1016.35L1158.77 1016.35L1158.77 299.335Z" fill="url(#LinearGradient_13)" fill-rule="nonzero" opacity="0.170542" stroke="none"/>
</g>
</g>
</g>
<g id="Layer-3" vectornator:layerName="Layer 3">
<path d="M1206.82 661.124C1183.59 661.124 1164.76 679.954 1164.76 703.187C1164.76 707.099 1165.45 710.811 1166.45 714.405C1163.08 713.099 1159.46 712.28 1155.63 712.28C1152.85 712.28 1150.22 712.79 1147.66 713.499C1141.83 696.745 1125 684.53 1104.91 684.53C1080.01 684.53 1059.79 703.193 1059.79 726.187C1059.79 727.806 1060.13 729.334 1060.32 730.905C1054.29 728.984 1047.87 727.905 1041.16 727.905C1016.24 727.905 994.841 742.289 985.664 762.78C980.305 755.26 973.501 749.225 965.571 745.655C965.802 744.081 966.133 742.533 966.133 740.905C966.133 719.828 946.147 702.749 921.477 702.749C918.129 702.749 914.865 703.121 911.727 703.718C905.081 684.575 884.999 670.655 861.196 670.655C843.428 670.655 827.791 678.481 818.196 690.374C811.297 683.974 802.972 680.187 793.977 680.187C770.265 680.186 751.039 706.217 751.039 738.312C751.039 739.905 751.29 741.406 751.383 742.968C745.7 741.094 739.617 740.062 733.258 740.062C722.406 740.062 712.348 743.129 703.821 748.249C696.215 727.147 678.086 712.28 656.914 712.28C629.168 712.28 606.669 737.811 606.227 769.468C599.648 758.557 588.318 751.312 575.383 751.312C564.692 751.312 555.148 756.317 548.414 764.187C546.317 763.479 544.109 762.936 541.821 762.53C541.904 761.402 542.008 760.272 542.008 759.124C542.008 731.82 518.124 709.687 488.664 709.687C459.205 709.686 435.321 731.82 435.321 759.124C435.321 760.747 435.437 762.354 435.602 763.937C433.79 763.715 431.987 763.468 430.102 763.468C418.443 763.468 408.165 767.976 401.164 774.905C393.091 768.407 382.678 764.343 371.133 764.343C360.03 764.343 349.984 768.128 342.039 774.187C343.443 768.698 344.227 762.949 344.227 756.968C344.227 721.76 318.228 693.218 286.133 693.218C265.312 693.218 247.113 705.26 236.852 723.312C232.406 721.804 227.703 720.968 222.821 720.968C199.554 720.968 180.165 739.394 175.414 763.968C171.41 763.1 167.26 762.593 162.977 762.593C132.319 762.593 107.446 786.081 107.446 815.062C107.446 844.042 132.319 867.562 162.977 867.562C188.268 867.562 209.562 851.554 216.258 829.687C218.411 830.015 220.588 830.249 222.821 830.249C229.575 830.249 236.007 828.708 241.852 825.905C245.327 825.939 248.535 825.966 252.164 825.999C263.276 830.162 279.632 832.843 298.133 832.843C310.84 832.843 322.611 831.597 332.352 829.468C340.499 841.369 354.772 849.343 371.133 849.343C388.596 849.343 403.602 840.226 411.383 826.968C415.274 826.984 418.838 827.015 422.789 827.03C425.161 827.418 427.596 827.655 430.102 827.655C430.691 827.655 431.238 827.521 431.821 827.499C437.23 831.8 445.266 834.593 454.383 834.593C461.537 834.593 468.027 832.834 473.133 830.03C483.128 834.44 496.448 837.187 511.196 837.187C528.633 837.187 544.03 833.35 554.289 827.437C556.156 827.44 558.196 827.433 560.071 827.437C564.747 829.76 569.901 831.124 575.383 831.124C578.84 831.124 582.117 830.431 585.289 829.468C590.862 837.663 601.357 843.249 613.539 843.249C626.658 843.249 637.896 836.808 643.039 827.562C644.704 827.563 646.245 827.56 647.914 827.562C650.842 828.163 653.836 828.53 656.914 828.53C659.949 828.53 662.902 828.177 665.789 827.593C669.743 827.595 673.251 827.591 677.227 827.593C680.001 830.823 683.678 832.843 687.727 832.843C690.654 832.843 693.355 831.759 695.696 829.968C705.543 838.68 718.704 844.124 733.258 844.124C749.086 844.124 763.243 837.725 773.289 827.624C782.278 835.004 795.495 839.78 810.446 839.78C820.651 839.78 830.13 837.606 837.977 833.874C848.194 845.492 862.764 852.812 878.977 852.812C891.694 852.811 903.362 848.285 912.758 840.749C921.72 851.403 934.161 857.999 947.914 857.999C966.787 857.999 982.99 845.431 991.321 827.155C994.552 827.144 997.094 827.136 1000.29 827.124C1011.04 836.567 1025.37 842.405 1041.16 842.405C1057.17 842.405 1071.68 836.418 1082.48 826.749C1082.77 826.747 1083.12 826.751 1083.41 826.749C1089.9 848.404 1107.63 864.093 1128.76 864.093C1144.65 864.093 1158.62 855.174 1167.38 841.593C1174.78 842.078 1182.41 842.405 1190.35 842.405C1220.59 842.405 1247.29 838.579 1265.35 832.718C1265.35 832.76 1265.35 832.801 1265.35 832.843C1265.35 853.92 1284.21 871.03 1307.45 871.03C1330.68 871.03 1349.51 853.92 1349.51 832.843C1349.51 811.766 1330.68 794.687 1307.45 794.687C1303.99 794.687 1300.66 795.161 1297.45 795.874C1299.04 791.849 1300.07 787.52 1300.07 782.968C1300.07 765.394 1287 750.786 1269.57 747.093C1269.55 747.073 1269.53 747.05 1269.51 747.03C1268.71 734.004 1259.02 723.185 1245.66 719.218C1247.71 714.272 1248.88 708.87 1248.88 703.187C1248.88 679.954 1230.05 661.124 1206.82 661.124ZM834.258 757.624C834.402 757.7 834.551 757.768 834.696 757.843C834.448 758.181 834.218 758.53 833.977 758.874C834.091 758.469 834.151 758.034 834.258 757.624Z" fill="#496848" fill-rule="nonzero" opacity="1" stroke="none"/>
</g>
<g id="Layer-4" vectornator:layerName="Layer 4">
<g opacity="1">
<use fill="url(#LinearGradient_14)" fill-rule="nonzero" opacity="1" stroke="none" xlink:href="#Fill_5"/>
<clipPath id="ClipPath_7">
<use xlink:href="#Fill_5"/>
</clipPath>
<g clip-path="url(#ClipPath_7)">
<path d="M909.07 314.718L754.707 314.718C740.984 314.718 729.86 325.008 729.86 337.701L729.86 850.396C729.86 863.089 740.984 873.379 754.707 873.379L909.07 873.379C922.793 873.379 933.917 863.089 933.917 850.396L933.917 337.701C933.917 325.008 922.793 314.718 909.07 314.718Z" fill="url(#LinearGradient_15)" fill-rule="nonzero" opacity="0.186148" stroke="none"/>
</g>
</g>
<g opacity="1">
<use fill="url(#LinearGradient_16)" fill-rule="nonzero" opacity="1" stroke="none" xlink:href="#Fill_6"/>
<clipPath id="ClipPath_8">
<use xlink:href="#Fill_6"/>
</clipPath>
<g clip-path="url(#ClipPath_8)">
<path d="M1135.27 373.764L1018.02 373.764C1007.59 373.764 999.144 382.893 999.144 394.154L999.144 849.007C999.144 860.268 1007.59 869.397 1018.02 869.397L1135.27 869.397C1145.69 869.397 1154.14 860.268 1154.14 849.007L1154.14 394.154C1154.14 382.893 1145.69 373.764 1135.27 373.764Z" fill="url(#LinearGradient_17)" fill-rule="nonzero" opacity="0.186148" stroke="none"/>
</g>
</g>
<g opacity="1">
<use fill="url(#LinearGradient_18)" fill-rule="nonzero" opacity="1" stroke="none" xlink:href="#Fill_7"/>
<clipPath id="ClipPath_9">
<use xlink:href="#Fill_7"/>
</clipPath>
<g clip-path="url(#ClipPath_9)">
<path d="M659.46 469.345L546.669 469.345C536.642 469.345 528.514 476.478 528.514 485.277L528.514 840.683C528.514 849.482 536.642 856.615 546.669 856.615L659.46 856.615C669.487 856.615 677.615 849.482 677.615 840.683L677.615 485.277C677.615 476.478 669.487 469.345 659.46 469.345Z" fill="url(#LinearGradient_19)" fill-rule="nonzero" opacity="0.186148" stroke="none"/>
</g>
</g>
<g opacity="1">
<use fill="url(#LinearGradient_20)" fill-rule="nonzero" opacity="1" stroke="none" xlink:href="#Fill_8"/>
<clipPath id="ClipPath_10">
<use xlink:href="#Fill_8"/>
</clipPath>
<g clip-path="url(#ClipPath_10)">
<path d="M456.021 424.105L356.719 424.105C347.891 424.105 340.735 432.189 340.735 442.161L340.735 844.949C340.735 854.921 347.891 863.006 356.719 863.006L456.021 863.006C464.849 863.006 472.005 854.921 472.005 844.949L472.005 442.161C472.005 432.189 464.849 424.105 456.021 424.105Z" fill="url(#LinearGradient_21)" fill-rule="nonzero" opacity="0.186148" stroke="none"/>
</g>
</g>
</g>
<g id="Layer-2" vectornator:layerName="Layer 2">
<path d="M64.6689 822.749L1376.31 822.749C1400.01 822.749 1419.22 842.147 1419.22 866.075L1419.22 873.81C1419.22 897.738 1400.01 917.136 1376.31 917.136L64.6689 917.136C40.9689 917.136 21.7563 897.738 21.7563 873.81L21.7563 866.075C21.7563 842.147 40.9689 822.749 64.6689 822.749Z" fill="#7ca87b" fill-rule="nonzero" opacity="1" stroke="none"/>
</g>
<g id="Layer-5" vectornator:layerName="Layer 5">
<g opacity="1">
<clipPath id="ClipPath_11">
<path d="M1245.07 334.226L1093.25 334.226C1081.71 334.226 1072.34 345.267 1072.34 358.886L1072.34 431.107C1072.34 444.726 1081.71 455.767 1093.25 455.767L1245.07 455.767C1256.62 455.767 1265.98 444.726 1265.98 431.107L1265.98 358.886C1265.98 345.267 1256.62 334.226 1245.07 334.226Z"/>
</clipPath>
<g clip-path="url(#ClipPath_11)">
<path d="M1266.39 430.039C1266.39 409.936 1250.64 393.64 1231.2 393.64C1211.77 393.64 1196.01 409.936 1196.01 430.039C1196.01 450.141 1211.77 466.438 1231.2 466.438C1250.64 466.438 1266.39 450.141 1266.39 430.039Z" fill="#ffffff" fill-rule="nonzero" opacity="1" stroke="none"/>
<path d="M1217.43 400.334C1217.43 384.649 1204.73 371.933 1189.08 371.933C1173.42 371.933 1160.73 384.649 1160.73 400.334C1160.73 416.019 1173.42 428.735 1189.08 428.735C1204.73 428.735 1217.43 416.019 1217.43 400.334Z" fill="#ffffff" fill-rule="nonzero" opacity="1" stroke="none"/>
<path d="M1188.19 440.159C1188.19 419.695 1171.63 403.107 1151.2 403.107C1130.78 403.107 1114.22 419.695 1114.22 440.159C1114.22 460.622 1130.78 477.21 1151.2 477.21C1171.63 477.21 1188.19 460.622 1188.19 440.159Z" fill="#ffffff" fill-rule="nonzero" opacity="1" stroke="none"/>
<path d="M1129.91 442.464C1129.91 431.557 1121.08 422.714 1110.19 422.714C1099.3 422.714 1090.48 431.557 1090.48 442.464C1090.48 453.372 1099.3 462.214 1110.19 462.214C1121.08 462.214 1129.91 453.372 1129.91 442.464Z" fill="#ffffff" fill-rule="nonzero" opacity="1" stroke="none"/>
<path d="M1224.36 436.731C1224.36 422.668 1209.19 411.268 1190.47 411.268C1171.75 411.268 1156.58 422.668 1156.58 436.731C1156.58 450.794 1171.75 462.194 1190.47 462.194C1209.19 462.194 1224.36 450.794 1224.36 436.731Z" fill="#ffffff" fill-rule="nonzero" opacity="1" stroke="none"/>
</g>
</g>
<g opacity="1">
<clipPath id="ClipPath_12">
<path d="M410.981 180.86L502.879 180.86C509.869 180.86 515.536 188.042 515.536 196.903L515.536 243.887C515.536 252.748 509.869 259.93 502.879 259.93L410.981 259.93C403.991 259.93 398.324 252.748 398.324 243.887L398.324 196.903C398.324 188.042 403.991 180.86 410.981 180.86Z"/>
</clipPath>
<g clip-path="url(#ClipPath_12)">
<path d="M398.074 243.192C398.074 230.114 407.612 219.512 419.377 219.512C431.142 219.512 440.679 230.114 440.679 243.192C440.679 256.271 431.142 266.873 419.377 266.873C407.612 266.873 398.074 256.271 398.074 243.192Z" fill="#ffffff" fill-rule="nonzero" opacity="1" stroke="none"/>
<path d="M427.715 223.867C427.715 213.663 435.398 205.39 444.876 205.39C454.353 205.39 462.036 213.663 462.036 223.867C462.036 234.072 454.353 242.344 444.876 242.344C435.398 242.344 427.715 234.072 427.715 223.867Z" fill="#ffffff" fill-rule="nonzero" opacity="1" stroke="none"/>
<path d="M445.413 249.776C445.413 236.463 455.436 225.671 467.8 225.671C480.165 225.671 490.188 236.463 490.188 249.776C490.188 263.089 480.165 273.881 467.8 273.881C455.436 273.881 445.413 263.089 445.413 249.776Z" fill="#ffffff" fill-rule="nonzero" opacity="1" stroke="none"/>
<path d="M480.693 251.276C480.693 244.18 486.036 238.427 492.626 238.427C499.217 238.427 504.559 244.18 504.559 251.276C504.559 258.372 499.217 264.125 492.626 264.125C486.036 264.125 480.693 258.372 480.693 251.276Z" fill="#ffffff" fill-rule="nonzero" opacity="1" stroke="none"/>
<path d="M423.519 247.546C423.519 238.397 432.703 230.981 444.032 230.981C455.362 230.981 464.546 238.397 464.546 247.546C464.546 256.695 455.362 264.112 444.032 264.112C432.703 264.112 423.519 256.695 423.519 247.546Z" fill="#ffffff" fill-rule="nonzero" opacity="1" stroke="none"/>
</g>
</g>
<g opacity="1">
<clipPath id="ClipPath_13">
<path d="M177.903 315.417L308.795 315.417C323.486 315.417 335.394 325.654 335.394 338.281L335.394 385.507C335.394 398.135 323.486 408.371 308.795 408.371L177.903 408.371C163.213 408.371 151.304 398.135 151.304 385.507L151.304 338.281C151.304 325.654 163.213 315.417 177.903 315.417Z"/>
</clipPath>
<g clip-path="url(#ClipPath_13)">
<path d="M179.601 389.971C179.601 379.058 188.705 370.212 199.935 370.212C211.166 370.212 220.27 379.058 220.27 389.971C220.27 400.884 211.166 409.73 199.935 409.73C188.705 409.73 179.601 400.884 179.601 389.971Z" fill="#ffffff" fill-rule="nonzero" opacity="1" stroke="none"/>
<path d="M204.056 380.312C204.056 367.512 214.735 357.135 227.908 357.135C241.082 357.135 251.76 367.512 251.76 380.312C251.76 393.112 241.082 403.488 227.908 403.488C214.735 403.488 204.056 393.112 204.056 380.312Z" fill="#ffffff" fill-rule="nonzero" opacity="1" stroke="none"/>
<path d="M235.441 364.82C235.441 350.066 247.75 338.106 262.933 338.106C278.117 338.106 290.426 350.066 290.426 364.82C290.426 379.574 278.117 391.534 262.933 391.534C247.75 391.534 235.441 379.574 235.441 364.82Z" fill="#ffffff" fill-rule="nonzero" opacity="1" stroke="none"/>
<path d="M270.106 387.021C270.106 374.962 280.167 365.186 292.577 365.186C304.988 365.186 315.048 374.962 315.048 387.021C315.048 399.08 304.988 408.856 292.577 408.856C280.167 408.856 270.106 399.08 270.106 387.021Z" fill="#ffffff" fill-rule="nonzero" opacity="1" stroke="none"/>
<path d="M182.715 399.469C182.715 391.045 208.794 384.215 240.964 384.215C273.134 384.215 299.214 391.045 299.214 399.469C299.214 407.894 273.134 414.724 240.964 414.724C208.794 414.724 182.715 407.894 182.715 399.469Z" fill="#ffffff" fill-rule="nonzero" opacity="1" stroke="none"/>
</g>
</g>
</g>
<g id="Layer-9" vectornator:layerName="Layer 9"/>
</svg>
